<svg width="18" height="18" viewBox="0 0 18 18" fill="none" xmlns="http://www.w3.org/2000/svg">
<path d="M11.2502 17.0623H6.75023C5.76023 17.0623 4.93523 16.9648 4.23773 16.7548C3.98273 16.6798 3.81773 16.4323 3.83273 16.1698C4.02023 13.9273 6.29273 12.1648 9.00023 12.1648C11.7077 12.1648 13.9727 13.9198 14.1677 16.1698C14.1902 16.4398 14.0252 16.6798 13.7627 16.7548C13.0652 16.9648 12.2402 17.0623 11.2502 17.0623ZM5.04023 15.7948C5.53523 15.8923 6.09773 15.9373 6.75023 15.9373H11.2502C11.9027 15.9373 12.4652 15.8923 12.9602 15.7948C12.5627 14.3548 10.9202 13.2898 9.00023 13.2898C7.08023 13.2898 5.43773 14.3548 5.04023 15.7948Z" fill="white"/>
<path d="M11.2501 1.49979H6.75012C3.00012 1.49979 1.50012 2.99979 1.50012 6.74979V11.2498C1.50012 14.0848 2.35512 15.6373 4.39512 16.2148C4.56012 14.2648 6.56262 12.7273 9.00012 12.7273C11.4376 12.7273 13.4401 14.2648 13.6051 16.2148C15.6451 15.6373 16.5001 14.0848 16.5001 11.2498V6.74979C16.5001 2.99979 15.0001 1.49979 11.2501 1.49979ZM9.00012 10.6273C7.51512 10.6273 6.31512 9.4198 6.31512 7.9348C6.31512 6.4498 7.51512 5.24979 9.00012 5.24979C10.4851 5.24979 11.6851 6.4498 11.6851 7.9348C11.6851 9.4198 10.4851 10.6273 9.00012 10.6273Z" stroke="white" stroke-linecap="round" stroke-linejoin="round"/>
<path d="M9.00006 11.1898C7.20756 11.1898 5.75256 9.7273 5.75256 7.9348C5.75256 6.1423 7.20756 4.68729 9.00006 4.68729C10.7926 4.68729 12.2476 6.1423 12.2476 7.9348C12.2476 9.7273 10.7926 11.1898 9.00006 11.1898ZM9.00006 5.81229C7.83006 5.81229 6.87756 6.7648 6.87756 7.9348C6.87756 9.1123 7.83006 10.0648 9.00006 10.0648C10.1701 10.0648 11.1226 9.1123 11.1226 7.9348C11.1226 6.7648 10.1701 5.81229 9.00006 5.81229Z" fill="white"/>
</svg>
