<svg width="28" height="20" viewBox="0 0 28 20" fill="none" xmlns="http://www.w3.org/2000/svg">
<path d="M17.6005 15.6834C17.4421 15.6834 17.2838 15.6251 17.1588 15.5001C16.9171 15.2584 16.9171 14.8584 17.1588 14.6168L21.7755 10.0001L17.1588 5.38343C16.9171 5.14176 16.9171 4.74176 17.1588 4.5001C17.4005 4.25843 17.8005 4.25843 18.0421 4.5001L23.1005 9.55843C23.3421 9.8001 23.3421 10.2001 23.1005 10.4418L18.0421 15.5001C17.9171 15.6251 17.7588 15.6834 17.6005 15.6834Z" fill="#4B506D"/>
<path d="M22.2882 10.625H3.12404C2.65717 10.625 2.27002 10.3417 2.27002 10C2.27002 9.65833 2.65717 9.375 3.12404 9.375H22.2882C22.755 9.375 23.1422 9.65833 23.1422 10C23.1422 10.3417 22.755 10.625 22.2882 10.625Z" fill="#4B506D"/>
</svg>
