<svg width="20" height="20" viewBox="0 0 20 20" fill="none" xmlns="http://www.w3.org/2000/svg">
<path fill-rule="evenodd" clip-rule="evenodd" d="M18.8539 2.60204C18.9679 2.48816 19.0584 2.35293 19.1201 2.20408C19.1819 2.05524 19.2137 1.89568 19.2138 1.73453C19.2139 1.57338 19.1823 1.41378 19.1207 1.26486C19.0591 1.11593 18.9688 0.980596 18.8549 0.866574C18.7411 0.752551 18.6058 0.662076 18.457 0.600314C18.3081 0.538552 18.1486 0.506713 17.9874 0.506614C17.8263 0.506515 17.6667 0.538158 17.5178 0.599737C17.3688 0.661316 17.2335 0.751625 17.1195 0.865507L9.71895 8.26604L2.32055 0.865507C2.09027 0.635228 1.77794 0.505859 1.45228 0.505859C1.12662 0.505859 0.814291 0.635228 0.584013 0.865507C0.353734 1.09579 0.224365 1.40811 0.224365 1.73377C0.224365 2.05944 0.353734 2.37176 0.584013 2.60204L7.98455 10.0004L0.584013 17.3988C0.46999 17.5129 0.379543 17.6482 0.317834 17.7972C0.256126 17.9462 0.224365 18.1059 0.224365 18.2671C0.224365 18.4284 0.256126 18.588 0.317834 18.737C0.379543 18.886 0.46999 19.0214 0.584013 19.1354C0.814291 19.3657 1.12662 19.495 1.45228 19.495C1.61353 19.495 1.7732 19.4633 1.92218 19.4016C2.07116 19.3398 2.20652 19.2494 2.32055 19.1354L9.71895 11.7348L17.1195 19.1354C17.3498 19.3654 17.662 19.4945 17.9874 19.4943C18.3129 19.4941 18.625 19.3646 18.8549 19.1343C19.0849 18.904 19.214 18.5918 19.2138 18.2664C19.2136 17.9409 19.0842 17.6288 18.8539 17.3988L11.4533 10.0004L18.8539 2.60204Z" fill="#000248"/>
</svg>
