<svg width="18" height="18" viewBox="0 0 18 18" fill="none" xmlns="http://www.w3.org/2000/svg">
<path d="M14.8275 10.3125H11.7975C10.29 10.3125 9.5625 9.61497 9.5625 8.17497V3.07497C9.5625 1.63497 10.2975 0.937469 11.7975 0.937469H14.8275C16.335 0.937469 17.0625 1.63497 17.0625 3.07497V8.17497C17.0625 9.61497 16.3275 10.3125 14.8275 10.3125ZM11.7975 2.06247C10.845 2.06247 10.6875 2.31747 10.6875 3.07497V8.17497C10.6875 8.93247 10.845 9.18747 11.7975 9.18747H14.8275C15.78 9.18747 15.9375 8.93247 15.9375 8.17497V3.07497C15.9375 2.31747 15.78 2.06247 14.8275 2.06247H11.7975Z" fill="white"/>
<path d="M14.8275 17.0625H11.7975C10.29 17.0625 9.5625 16.365 9.5625 14.925V13.575C9.5625 12.135 10.2975 11.4375 11.7975 11.4375H14.8275C16.335 11.4375 17.0625 12.135 17.0625 13.575V14.925C17.0625 16.365 16.3275 17.0625 14.8275 17.0625ZM11.7975 12.5625C10.845 12.5625 10.6875 12.8175 10.6875 13.575V14.925C10.6875 15.6825 10.845 15.9375 11.7975 15.9375H14.8275C15.78 15.9375 15.9375 15.6825 15.9375 14.925V13.575C15.9375 12.8175 15.78 12.5625 14.8275 12.5625H11.7975Z" fill="white"/>
<path d="M6.2025 17.0625H3.1725C1.665 17.0625 0.9375 16.365 0.9375 14.925V9.82497C0.9375 8.38497 1.6725 7.68747 3.1725 7.68747H6.2025C7.71 7.68747 8.4375 8.38497 8.4375 9.82497V14.925C8.4375 16.365 7.7025 17.0625 6.2025 17.0625ZM3.1725 8.81247C2.22 8.81247 2.0625 9.06747 2.0625 9.82497V14.925C2.0625 15.6825 2.22 15.9375 3.1725 15.9375H6.2025C7.155 15.9375 7.3125 15.6825 7.3125 14.925V9.82497C7.3125 9.06747 7.155 8.81247 6.2025 8.81247H3.1725Z" fill="white"/>
<path d="M6.2025 6.56247H3.1725C1.665 6.56247 0.9375 5.86497 0.9375 4.42497V3.07497C0.9375 1.63497 1.6725 0.937469 3.1725 0.937469H6.2025C7.71 0.937469 8.4375 1.63497 8.4375 3.07497V4.42497C8.4375 5.86497 7.7025 6.56247 6.2025 6.56247ZM3.1725 2.06247C2.22 2.06247 2.0625 2.31747 2.0625 3.07497V4.42497C2.0625 5.18247 2.22 5.43747 3.1725 5.43747H6.2025C7.155 5.43747 7.3125 5.18247 7.3125 4.42497V3.07497C7.3125 2.31747 7.155 2.06247 6.2025 2.06247H3.1725Z" fill="white"/>
</svg>
