<svg width="20" height="20" viewBox="0 0 20 20" fill="none" xmlns="http://www.w3.org/2000/svg">
<path d="M6.66663 4.79167C6.32496 4.79167 6.04163 4.50834 6.04163 4.16667V1.66667C6.04163 1.32501 6.32496 1.04167 6.66663 1.04167C7.00829 1.04167 7.29163 1.32501 7.29163 1.66667V4.16667C7.29163 4.50834 7.00829 4.79167 6.66663 4.79167Z" fill="#7C828D"/>
<path d="M13.3334 4.79167C12.9917 4.79167 12.7084 4.50834 12.7084 4.16667V1.66667C12.7084 1.32501 12.9917 1.04167 13.3334 1.04167C13.675 1.04167 13.9584 1.32501 13.9584 1.66667V4.16667C13.9584 4.50834 13.675 4.79167 13.3334 4.79167Z" fill="#7C828D"/>
<path d="M13.3333 18.9583H6.66667C3.625 18.9583 1.875 17.2083 1.875 14.1667V7.08334C1.875 4.04167 3.625 2.29167 6.66667 2.29167H13.3333C16.375 2.29167 18.125 4.04167 18.125 7.08334V14.1667C18.125 17.2083 16.375 18.9583 13.3333 18.9583ZM6.66667 3.54167C4.28333 3.54167 3.125 4.7 3.125 7.08334V14.1667C3.125 16.55 4.28333 17.7083 6.66667 17.7083H13.3333C15.7167 17.7083 16.875 16.55 16.875 14.1667V7.08334C16.875 4.7 15.7167 3.54167 13.3333 3.54167H6.66667Z" fill="#7C828D"/>
<path d="M13.3333 9.79167H6.66663C6.32496 9.79167 6.04163 9.50834 6.04163 9.16667C6.04163 8.82501 6.32496 8.54167 6.66663 8.54167H13.3333C13.675 8.54167 13.9583 8.82501 13.9583 9.16667C13.9583 9.50834 13.675 9.79167 13.3333 9.79167Z" fill="#7C828D"/>
<path d="M9.99996 13.9583H6.66663C6.32496 13.9583 6.04163 13.675 6.04163 13.3333C6.04163 12.9917 6.32496 12.7083 6.66663 12.7083H9.99996C10.3416 12.7083 10.625 12.9917 10.625 13.3333C10.625 13.675 10.3416 13.9583 9.99996 13.9583Z" fill="#7C828D"/>
</svg>
