<svg width="44" height="44" viewBox="0 0 44 44" fill="none" xmlns="http://www.w3.org/2000/svg">
<circle cx="22" cy="22.0002" r="22" fill="#29CC97"/>
<path d="M15.694 27.1682C14.7793 27.1682 14.0513 26.9115 13.51 26.3982C12.978 25.8848 12.712 25.1615 12.712 24.2282H14.196C14.196 24.6948 14.308 25.0822 14.532 25.3902C14.7653 25.6982 15.1433 25.8522 15.666 25.8522C16.1793 25.8522 16.5433 25.7075 16.758 25.4182C16.9727 25.1195 17.08 24.7415 17.08 24.2842V17.2002H18.564V24.2842C18.564 25.2082 18.3073 25.9222 17.794 26.4262C17.2807 26.9208 16.5807 27.1682 15.694 27.1682ZM20.5467 27.0002V17.2002H22.2967L25.6147 23.7242L28.9187 17.2002H30.6687V27.0002H29.1847V19.7622L26.1887 25.6002H25.0407L22.0307 19.7762V27.0002H20.5467Z" fill="white"/>
</svg>
