<svg width="44" height="44" viewBox="0 0 44 44" fill="none" xmlns="http://www.w3.org/2000/svg">
<circle cx="22" cy="22.0002" r="22" fill="#F4AF10"/>
<path d="M17.3344 27.1682C16.6158 27.1682 15.9858 27.0422 15.4444 26.7902C14.9031 26.5382 14.4784 26.1788 14.1704 25.7122C13.8718 25.2455 13.7178 24.6902 13.7084 24.0462H15.2764C15.2858 24.5688 15.4678 25.0122 15.8224 25.3762C16.1771 25.7402 16.6764 25.9222 17.3204 25.9222C17.8898 25.9222 18.3331 25.7868 18.6504 25.5162C18.9771 25.2362 19.1404 24.8815 19.1404 24.4522C19.1404 24.1068 19.0611 23.8268 18.9024 23.6122C18.7531 23.3975 18.5431 23.2202 18.2724 23.0802C18.0111 22.9402 17.7078 22.8142 17.3624 22.7022C17.0171 22.5902 16.6531 22.4688 16.2704 22.3382C15.5144 22.0862 14.9451 21.7595 14.5624 21.3582C14.1891 20.9568 14.0024 20.4295 14.0024 19.7762C13.9931 19.2255 14.1191 18.7448 14.3804 18.3342C14.6511 17.9235 15.0244 17.6062 15.5004 17.3822C15.9858 17.1488 16.5504 17.0322 17.1944 17.0322C17.8291 17.0322 18.3844 17.1488 18.8604 17.3822C19.3458 17.6155 19.7238 17.9422 19.9944 18.3622C20.2651 18.7728 20.4051 19.2535 20.4144 19.8042H18.8464C18.8464 19.5522 18.7811 19.3142 18.6504 19.0902C18.5198 18.8568 18.3284 18.6655 18.0764 18.5162C17.8244 18.3668 17.5164 18.2922 17.1524 18.2922C16.6858 18.2828 16.2984 18.3995 15.9904 18.6422C15.6918 18.8848 15.5424 19.2208 15.5424 19.6502C15.5424 20.0328 15.6544 20.3268 15.8784 20.5322C16.1024 20.7375 16.4104 20.9102 16.8024 21.0502C17.1944 21.1808 17.6424 21.3348 18.1464 21.5122C18.6318 21.6708 19.0658 21.8622 19.4484 22.0862C19.8311 22.3102 20.1344 22.6042 20.3584 22.9682C20.5918 23.3322 20.7084 23.7942 20.7084 24.3542C20.7084 24.8488 20.5824 25.3108 20.3304 25.7402C20.0784 26.1602 19.7004 26.5055 19.1964 26.7762C18.6924 27.0375 18.0718 27.1682 17.3344 27.1682ZM21.7009 27.0002L25.3129 17.2002H26.9369L30.5209 27.0002H28.9529L28.1129 24.6062H24.1089L23.2689 27.0002H21.7009ZM24.5289 23.4302H27.6929L26.1109 18.9642L24.5289 23.4302Z" fill="white"/>
</svg>
