<svg width="18" height="18" viewBox="0 0 18 18" fill="none" xmlns="http://www.w3.org/2000/svg">
<path d="M12.0003 17.0624H6.00029C2.53529 17.0624 1.89029 15.4499 1.72529 13.8824L1.16279 7.87495C1.08029 7.08745 1.05779 5.92495 1.83779 5.05495C2.51279 4.30495 3.63029 3.94495 5.25029 3.94495H12.7503C14.3778 3.94495 15.4953 4.31245 16.1628 5.05495C16.9428 5.92495 16.9203 7.08745 16.8378 7.88245L16.2753 13.8749C16.1103 15.4499 15.4653 17.0624 12.0003 17.0624ZM5.25029 5.06245C3.98279 5.06245 3.11279 5.30995 2.67029 5.80495C2.30279 6.20995 2.18279 6.83245 2.28029 7.76245L2.84279 13.7699C2.97029 14.9549 3.29279 15.9374 6.00029 15.9374H12.0003C14.7003 15.9374 15.0303 14.9549 15.1578 13.7624L15.7203 7.76995C15.8178 6.83245 15.6978 6.20995 15.3303 5.80495C14.8878 5.30995 14.0178 5.06245 12.7503 5.06245H5.25029Z" fill="white"/>
<path d="M12.0002 5.06238C11.6927 5.06238 11.4377 4.80738 11.4377 4.49988V3.89988C11.4377 2.56488 11.4377 2.06238 9.60024 2.06238H8.40024C6.56274 2.06238 6.56274 2.56488 6.56274 3.89988V4.49988C6.56274 4.80738 6.30774 5.06238 6.00024 5.06238C5.69274 5.06238 5.43774 4.80738 5.43774 4.49988V3.89988C5.43774 2.57988 5.43774 0.937378 8.40024 0.937378H9.60024C12.5627 0.937378 12.5627 2.57988 12.5627 3.89988V4.49988C12.5627 4.80738 12.3077 5.06238 12.0002 5.06238Z" fill="white"/>
<path d="M8.99976 12.5625C6.93726 12.5625 6.93726 11.2875 6.93726 10.5225V9.75C6.93726 8.6925 7.19226 8.4375 8.24976 8.4375H9.74976C10.8073 8.4375 11.0623 8.6925 11.0623 9.75V10.5C11.0623 11.28 11.0623 12.5625 8.99976 12.5625ZM8.06226 9.5625C8.06226 9.6225 8.06226 9.69 8.06226 9.75V10.5225C8.06226 11.295 8.06226 11.4375 8.99976 11.4375C9.93726 11.4375 9.93726 11.3175 9.93726 10.515V9.75C9.93726 9.69 9.93726 9.6225 9.93726 9.5625C9.87726 9.5625 9.80976 9.5625 9.74976 9.5625H8.24976C8.18976 9.5625 8.12226 9.5625 8.06226 9.5625Z" fill="white"/>
<path d="M10.5004 11.0776C10.2229 11.0776 9.97537 10.8676 9.94537 10.5826C9.90787 10.2751 10.1254 9.99006 10.4329 9.95256C12.4129 9.70506 14.3104 8.95506 15.9079 7.79256C16.1554 7.60506 16.5079 7.66506 16.6954 7.92006C16.8754 8.16756 16.8229 8.52006 16.5679 8.70756C14.8129 9.98256 12.7429 10.8001 10.5679 11.0776C10.5454 11.0776 10.5229 11.0776 10.5004 11.0776Z" fill="white"/>
<path d="M7.50005 11.085C7.47755 11.085 7.45505 11.085 7.43255 11.085C5.37755 10.8525 3.37505 10.1025 1.64255 8.91749C1.38755 8.74499 1.32005 8.39249 1.49255 8.13749C1.66505 7.88249 2.01755 7.81499 2.27255 7.98749C3.85505 9.06749 5.67755 9.74999 7.55255 9.96749C7.86005 10.005 8.08505 10.2825 8.04755 10.59C8.02505 10.875 7.78505 11.085 7.50005 11.085Z" fill="white"/>
</svg>
