<svg width="44" height="44" viewBox="0 0 44 44" fill="none" xmlns="http://www.w3.org/2000/svg">
<circle cx="22" cy="22.0002" r="22" fill="#D33B3B"/>
<path d="M14.4569 27.0002V17.2002H18.1529C19.1702 17.2002 19.9402 17.4382 20.4629 17.9142C20.9856 18.3902 21.2469 18.9875 21.2469 19.7062C21.2469 20.3315 21.0789 20.8308 20.7429 21.2042C20.4069 21.5682 20.0009 21.8155 19.5249 21.9462C19.8982 22.0208 20.2296 22.1702 20.5189 22.3942C20.8176 22.6182 21.0509 22.8982 21.2189 23.2342C21.3869 23.5702 21.4709 23.9342 21.4709 24.3262C21.4709 24.8302 21.3449 25.2875 21.0929 25.6982C20.8502 26.0995 20.4909 26.4168 20.0149 26.6502C19.5389 26.8835 18.9556 27.0002 18.2649 27.0002H14.4569ZM15.9409 21.4002H17.9709C18.5402 21.4002 18.9742 21.2695 19.2729 21.0082C19.5716 20.7375 19.7209 20.3688 19.7209 19.9022C19.7209 19.4448 19.5716 19.0808 19.2729 18.8102C18.9836 18.5395 18.5402 18.4042 17.9429 18.4042H15.9409V21.4002ZM15.9409 25.7822H18.0689C18.6662 25.7822 19.1282 25.6422 19.4549 25.3622C19.7909 25.0822 19.9589 24.6902 19.9589 24.1862C19.9589 23.6822 19.7862 23.2855 19.4409 22.9962C19.0956 22.6975 18.6289 22.5482 18.0409 22.5482H15.9409V25.7822ZM22.3445 27.0002L25.9565 17.2002H27.5805L31.1645 27.0002H29.5965L28.7565 24.6062H24.7525L23.9125 27.0002H22.3445ZM25.1725 23.4302H28.3365L26.7545 18.9642L25.1725 23.4302Z" fill="white"/>
</svg>
