<svg width="31" height="31" viewBox="0 0 31 31" fill="none" xmlns="http://www.w3.org/2000/svg">
<path d="M20.6675 29.3852H10.3342C4.3667 29.3852 3.25586 26.6081 2.9717 23.9085L2.00295 13.5623C1.86086 12.206 1.82211 10.2039 3.16545 8.70561C4.32795 7.41394 6.25253 6.79395 9.04253 6.79395H21.9592C24.7621 6.79395 26.6867 7.42686 27.8363 8.70561C29.1796 10.2039 29.1409 12.206 28.9988 13.5752L28.03 23.8956C27.7459 26.6081 26.635 29.3852 20.6675 29.3852ZM9.04253 8.71853C6.85961 8.71853 5.36128 9.14478 4.5992 9.99728C3.96628 10.6948 3.75961 11.7669 3.92753 13.3685L4.89628 23.7148C5.11586 25.7556 5.67128 27.4477 10.3342 27.4477H20.6675C25.3175 27.4477 25.8859 25.7556 26.1054 23.7019L27.0742 13.3814C27.2421 11.7669 27.0354 10.6948 26.4025 9.99728C25.6404 9.14478 24.1421 8.71853 21.9592 8.71853H9.04253Z" fill="white"/>
<path d="M20.6673 8.71842C20.1377 8.71842 19.6986 8.27926 19.6986 7.74967V6.71634C19.6986 4.41717 19.6986 3.55176 16.534 3.55176H14.4673C11.3027 3.55176 11.3027 4.41717 11.3027 6.71634V7.74967C11.3027 8.27926 10.8636 8.71842 10.334 8.71842C9.8044 8.71842 9.36523 8.27926 9.36523 7.74967V6.71634C9.36523 4.44301 9.36523 1.61426 14.4673 1.61426H16.534C21.6361 1.61426 21.6361 4.44301 21.6361 6.71634V7.74967C21.6361 8.27926 21.1969 8.71842 20.6673 8.71842Z" fill="white"/>
<path d="M15.4993 21.6354C11.9473 21.6354 11.9473 19.4396 11.9473 18.1221V16.7917C11.9473 14.9704 12.3864 14.5312 14.2077 14.5312H16.791C18.6123 14.5312 19.0514 14.9704 19.0514 16.7917V18.0833C19.0514 19.4267 19.0514 21.6354 15.4993 21.6354ZM13.8848 16.4687C13.8848 16.5721 13.8848 16.6883 13.8848 16.7917V18.1221C13.8848 19.4525 13.8848 19.6979 15.4993 19.6979C17.1139 19.6979 17.1139 19.4913 17.1139 18.1092V16.7917C17.1139 16.6883 17.1139 16.5721 17.1139 16.4687C17.0106 16.4687 16.8943 16.4687 16.791 16.4687H14.2077C14.1043 16.4687 13.9881 16.4687 13.8848 16.4687Z" fill="white"/>
<path d="M18.0842 19.0781C17.6063 19.0781 17.18 18.7165 17.1283 18.2256C17.0638 17.6961 17.4383 17.2052 17.9679 17.1406C21.3779 16.7144 24.6458 15.4227 27.3971 13.4206C27.8233 13.0977 28.4304 13.2011 28.7533 13.6402C29.0633 14.0665 28.9729 14.6736 28.5338 14.9965C25.5113 17.1923 21.9463 18.6002 18.2004 19.0781C18.1617 19.0781 18.1229 19.0781 18.0842 19.0781Z" fill="white"/>
<path d="M12.9171 19.091C12.8784 19.091 12.8396 19.091 12.8009 19.091C9.26169 18.6906 5.81294 17.3989 2.8292 15.3581C2.39003 15.061 2.27378 14.4539 2.57086 14.0147C2.86795 13.5756 3.47503 13.4593 3.91419 13.7564C6.63961 15.6164 9.77836 16.7918 13.0075 17.1664C13.5371 17.231 13.9246 17.7089 13.86 18.2385C13.8213 18.7293 13.4079 19.091 12.9171 19.091Z" fill="white"/>
</svg>
