<svg width="18" height="18" viewBox="0 0 18 18" fill="none" xmlns="http://www.w3.org/2000/svg">
<path d="M14.2277 17.0623H3.72766C0.915161 17.0623 0.915161 15.5023 0.915161 14.2498V13.4998C0.915161 12.7798 1.50766 12.1873 2.22766 12.1873H15.7277C16.4477 12.1873 17.0402 12.7798 17.0402 13.4998V14.2498C17.0402 15.5023 17.0402 17.0623 14.2277 17.0623ZM2.22766 13.3123C2.12266 13.3123 2.04016 13.3948 2.04016 13.4998V14.2498C2.04016 15.4798 2.04016 15.9373 3.72766 15.9373H14.2277C15.9152 15.9373 15.9152 15.4798 15.9152 14.2498V13.4998C15.9152 13.3948 15.8327 13.3123 15.7277 13.3123H2.22766Z" fill="white"/>
<path d="M15.5401 13.3123H2.45264C2.14514 13.3123 1.89014 13.0573 1.89014 12.7498V9.74979C1.89014 6.67479 4.07264 3.97479 7.07264 3.33729C7.51514 3.23979 7.98014 3.18729 8.45264 3.18729H9.54014C10.0201 3.18729 10.4851 3.23979 10.9276 3.33729C13.9276 3.98229 16.1026 6.68229 16.1026 9.74979V12.7498C16.1026 13.0573 15.8551 13.3123 15.5401 13.3123ZM3.01514 12.1873H14.9776V9.74979C14.9776 7.20729 13.1776 4.97229 10.6876 4.43229C10.3201 4.34979 9.93764 4.31229 9.54014 4.31229H8.45264C8.06264 4.31229 7.68014 4.34979 7.31264 4.43229C4.82264 4.96479 3.01514 7.19979 3.01514 9.74979V12.1873Z" fill="white"/>
<path d="M7.19262 4.44729C6.94512 4.44729 6.72012 4.28229 6.65262 4.03479C6.59262 3.81729 6.56262 3.59979 6.56262 3.37479C6.56262 2.03229 7.65762 0.937286 9.00012 0.937286C10.3426 0.937286 11.4376 2.03229 11.4376 3.37479C11.4376 3.59979 11.4076 3.81729 11.3476 4.03479C11.2726 4.31979 10.9876 4.49979 10.6876 4.43229C10.3201 4.34979 9.93762 4.31229 9.54012 4.31229H8.45262C8.06262 4.31229 7.68012 4.34979 7.31262 4.43229C7.27512 4.43979 7.23762 4.44729 7.19262 4.44729ZM8.45262 3.18729H9.54012C9.79512 3.18729 10.0576 3.20229 10.3051 3.23229C10.2376 2.57229 9.67512 2.06229 9.00012 2.06229C8.32512 2.06229 7.77012 2.57229 7.69512 3.23229C7.95012 3.20229 8.19762 3.18729 8.45262 3.18729Z" fill="white"/>
<path d="M11.2501 8.81229H6.75012C6.44262 8.81229 6.18762 8.55729 6.18762 8.24979C6.18762 7.94229 6.44262 7.68729 6.75012 7.68729H11.2501C11.5576 7.68729 11.8126 7.94229 11.8126 8.24979C11.8126 8.55729 11.5576 8.81229 11.2501 8.81229Z" fill="white"/>
</svg>
