<svg width="24" height="24" viewBox="0 0 24 24" fill="none" xmlns="http://www.w3.org/2000/svg">
<mask id="mask0_47_517" style="mask-type:alpha" maskUnits="userSpaceOnUse" x="0" y="0" width="24" height="24">
<rect width="24" height="24" fill="#D9D9D9"/>
</mask>
<g mask="url(#mask0_47_517)">
</g>
<path d="M13.7812 14.175C13.5562 13.5375 13.0937 13.025 12.3937 12.6375C11.6937 12.25 10.7125 12.0562 9.45 12.0562C8.1875 12.0562 7.20625 12.25 6.50625 12.6375C5.80625 13.025 5.3375 13.5375 5.1 14.175H13.7812ZM3.75 15.3C3.75 14.7 3.85938 14.1344 4.07812 13.6031C4.29687 13.0719 4.64062 12.6094 5.10938 12.2156C5.57812 11.8219 6.17188 11.5094 6.89062 11.2781C7.60937 11.0469 8.46875 10.9312 9.46875 10.9312C10.4563 10.9312 11.3062 11.0469 12.0187 11.2781C12.7312 11.5094 13.3219 11.8219 13.7906 12.2156C14.2594 12.6094 14.6031 13.0719 14.8219 13.6031C15.0406 14.1344 15.15 14.7 15.15 15.3H3.75ZM3.75 17.7V16.575H15.15V17.7H3.75ZM16.275 20.25V19.125H17.8875L18.9562 8.25H11.4937L11.3625 7.125H15.2062V3.75H16.3312V7.125H20.25L18.9938 19.125C18.9563 19.45 18.8219 19.7188 18.5906 19.9313C18.3594 20.1438 18.0688 20.25 17.7188 20.25H16.275ZM16.275 19.125H17.8875H16.275ZM4.3125 20.25C4.1625 20.25 4.03125 20.1937 3.91875 20.0812C3.80625 19.9687 3.75 19.8375 3.75 19.6875V19.125H15.15V19.6875C15.15 19.8375 15.0938 19.9687 14.9813 20.0812C14.8688 20.1937 14.7375 20.25 14.5875 20.25H4.3125Z" fill="white"/>
</svg>
