<svg width="12" height="12" viewBox="0 0 12 12" fill="none" xmlns="http://www.w3.org/2000/svg">
<path d="M7.48768 4.74713C7.35931 4.61891 7.21697 4.50525 7.06331 4.40824C6.65631 4.14947 6.18316 4.01197 5.69988 4.01197C5.02909 4.01073 4.38556 4.27536 3.91207 4.74713L1.615 7.02969C1.14232 7.49992 0.876644 8.13704 0.876221 8.80141C0.875332 10.1878 2.00651 11.3124 3.40281 11.3133C4.07256 11.3156 4.7155 11.0522 5.18882 10.5817L7.08498 8.69902C7.11944 8.6651 7.13867 8.61883 7.1384 8.57067C7.13783 8.47164 7.0565 8.39184 6.95676 8.39241H6.88453C6.48837 8.39379 6.09574 8.31825 5.72878 8.17007C5.66117 8.14244 5.58346 8.15803 5.53195 8.20951L4.16851 9.56507C3.74514 9.98544 3.05871 9.98544 2.63533 9.56507C2.21196 9.14469 2.21196 8.46313 2.63533 8.04276L4.94143 5.75482C5.36447 5.33531 6.04978 5.33531 6.47282 5.75482C6.75792 6.02124 7.20263 6.02124 7.48771 5.75482C7.61036 5.63293 7.68473 5.47126 7.69719 5.29938C7.71038 5.09398 7.63409 4.89283 7.48768 4.74713Z" fill="white"/>
<path d="M10.9712 1.28826C9.98384 0.307884 8.38298 0.307884 7.3956 1.28826L5.50124 3.16738C5.44922 3.21928 5.43422 3.29734 5.46332 3.36462C5.49208 3.43209 5.55929 3.4754 5.63306 3.47399H5.69987C6.09557 3.47328 6.48756 3.54941 6.85382 3.69813C6.92144 3.72576 6.99914 3.71017 7.05065 3.65869L8.41047 2.3103C8.83385 1.88993 9.52028 1.88993 9.94365 2.3103C10.367 2.73068 10.367 3.41224 9.94365 3.83261L8.24974 5.5127L8.23529 5.52884L7.64297 6.11338C7.21993 6.5329 6.53463 6.5329 6.11159 6.11338C5.82649 5.84697 5.38178 5.84697 5.0967 6.11338C4.97326 6.2362 4.89883 6.39928 4.88721 6.5724C4.87401 6.7778 4.9503 6.97895 5.0967 7.12467C5.30572 7.33309 5.55027 7.50306 5.81904 7.62672C5.85696 7.64464 5.89489 7.65899 5.93281 7.67513C5.97073 7.69127 6.01045 7.70381 6.04838 7.71816C6.0863 7.73252 6.12602 7.74506 6.16395 7.75582L6.2705 7.7845C6.34273 7.80242 6.41497 7.81678 6.489 7.82932C6.57818 7.84247 6.66799 7.85086 6.75808 7.85443H6.88449H6.89532L7.00367 7.84189C7.0434 7.8401 7.08494 7.83113 7.1319 7.83113H7.19329L7.31789 7.8132L7.37569 7.80245L7.48042 7.78093H7.50029C7.94388 7.6703 8.34893 7.44225 8.67229 7.12108L10.9712 4.83852C11.9586 3.85814 11.9586 2.26864 10.9712 1.28826Z" fill="white"/>
</svg>
