<svg width="10" height="7" viewBox="0 0 10 7" fill="none" xmlns="http://www.w3.org/2000/svg">
<path d="M0.957375 1.99259C1.08355 2.06603 1.4639 2.28415 2.09844 2.64684C2.733 3.00953 3.21912 3.2888 3.55681 3.48465C3.59391 3.50612 3.67273 3.55278 3.79331 3.62471C3.91392 3.69669 4.01413 3.75486 4.09387 3.79923C4.17366 3.84358 4.27013 3.89333 4.38336 3.94841C4.49656 4.00344 4.60326 4.04483 4.70345 4.07223C4.80366 4.09986 4.89642 4.11354 4.98176 4.11354H4.98735H4.99297C5.0783 4.11354 5.1711 4.09984 5.27131 4.07223C5.37146 4.04483 5.47826 4.00339 5.59136 3.94841C5.70452 3.89327 5.80098 3.84356 5.88078 3.79923C5.96058 3.75486 6.06071 3.69669 6.18135 3.62471C6.30192 3.55272 6.38084 3.50612 6.41794 3.48465C6.75927 3.2888 7.62769 2.79139 9.02291 1.99249C9.29379 1.83645 9.52009 1.64818 9.7019 1.42779C9.88383 1.20749 9.9747 0.976392 9.9747 0.734614C9.9747 0.532572 9.88652 0.35962 9.71024 0.215775C9.53398 0.0718983 9.32521 0 9.08408 0H0.890562C0.604847 0 0.38497 0.079569 0.23097 0.238707C0.0769901 0.397877 0 0.596832 0 0.835554C0 1.02838 0.102082 1.23734 0.306147 1.4623C0.510193 1.68727 0.727341 1.86405 0.957375 1.99259Z" fill="white"/>
<path d="M9.41801 2.4838C8.20099 3.16324 7.27687 3.69128 6.64612 4.0678C6.4346 4.1963 6.26302 4.29662 6.13125 4.3685C5.99947 4.44043 5.82422 4.51389 5.60524 4.58884C5.38634 4.66391 5.18233 4.70133 4.99304 4.70133H4.98737H4.98178C4.79253 4.70133 4.5884 4.66391 4.3695 4.58884C4.1506 4.51389 3.97523 4.44043 3.8435 4.3685C3.7118 4.29662 3.54016 4.1963 3.32866 4.0678C2.82767 3.7648 1.90555 3.23673 0.562248 2.4838C0.350676 2.36757 0.16328 2.23434 0 2.08438V5.72971C0 5.93185 0.087167 6.1047 0.261598 6.24857C0.435991 6.39248 0.645691 6.46441 0.89062 6.46441H9.08416C9.32903 6.46441 9.53871 6.39248 9.71312 6.24857C9.8876 6.10466 9.97472 5.93187 9.97472 5.72971V2.08438C9.81513 2.23123 9.62964 2.36446 9.41801 2.4838Z" fill="white"/>
</svg>
