<svg width="153" height="34" viewBox="0 0 153 34" fill="none" xmlns="http://www.w3.org/2000/svg">
<path fill-rule="evenodd" clip-rule="evenodd" d="M48.9215 6.36626C50.2836 5.83418 51.7338 5.56665 53.2765 5.56665C54.5158 5.56665 55.5972 5.68637 56.5263 5.91865L56.5278 5.91901L56.5292 5.91936C57.5132 6.15988 58.3413 6.42998 59.019 6.72649L59.0201 6.72698L59.0212 6.72745C59.6287 6.99012 60.1673 7.2688 60.6393 7.56229L57.687 12.7639C57.4615 12.6136 57.2259 12.4674 56.9804 12.3253L56.9596 12.3132L56.9379 12.303C56.5275 12.1099 56.0446 11.9338 55.494 11.7727C54.9115 11.5722 54.2589 11.4778 53.5448 11.4778C52.7835 11.4778 52.0704 11.6132 51.4129 11.8914C50.7705 12.1632 50.1987 12.5356 49.7011 13.0083L49.6958 13.0133L49.6907 13.0184C49.2128 13.4964 48.838 14.06 48.5653 14.7034C48.2869 15.3374 48.1501 16.0179 48.1501 16.7383C48.1501 17.4603 48.2875 18.1502 48.5637 18.8031L48.5689 18.8155L48.5747 18.8275C48.8726 19.448 49.2709 19.996 49.7682 20.4684C50.2693 20.9444 50.8553 21.3171 51.5205 21.5881C52.1982 21.8642 52.931 21.9988 53.7124 21.9988C54.474 21.9988 55.171 21.9037 55.7963 21.7036C56.3796 21.517 56.8877 21.3017 57.312 21.053C57.5762 20.9073 57.8242 20.7463 58.0556 20.5699L60.9921 25.7438C60.5149 26.0863 59.9683 26.4006 59.3496 26.6852C58.6683 26.9829 57.8377 27.2641 56.8531 27.5267C55.9046 27.7796 54.8037 27.91 53.5448 27.91C51.8636 27.91 50.3237 27.641 48.9195 27.1096C47.5093 26.5536 46.2997 25.7877 45.284 24.8144C44.2694 23.842 43.4743 22.6779 42.8993 21.3155C42.3276 19.9385 42.0377 18.4152 42.0377 16.7383C42.0377 15.0166 42.3388 13.4857 42.9293 12.136L42.9299 12.1345L42.9306 12.133C43.5286 10.7448 44.3361 9.56799 45.3511 8.59524C46.3673 7.6214 47.5532 6.87943 48.9143 6.36901L48.9179 6.36766L48.9215 6.36626ZM114.57 6.45821C115.927 5.86447 117.37 5.56665 118.904 5.56665C120.438 5.56665 121.881 5.86447 123.238 6.45821L123.242 6.45971L123.245 6.46116C124.609 7.03663 125.787 7.8332 126.783 8.85087L126.787 8.85513L126.791 8.85929C127.809 9.85577 128.606 11.0333 129.181 12.3974L129.183 12.4008L129.184 12.4043C129.778 13.7614 130.076 15.2042 130.076 16.7383C130.076 18.2724 129.778 19.7153 129.184 21.0724L129.183 21.0758L129.181 21.0793C128.605 22.4444 127.808 23.6348 126.787 24.6551C125.79 25.6526 124.61 26.4515 123.242 27.0505C121.884 27.6227 120.44 27.91 118.904 27.91C117.368 27.91 115.924 27.6227 114.566 27.0505C113.199 26.4519 112.008 25.6532 110.987 24.6552C109.989 23.6347 109.19 22.443 108.592 21.0756C108.02 19.718 107.732 18.2739 107.732 16.7383C107.732 15.2027 108.02 13.7587 108.592 12.4011C109.191 11.0329 109.99 9.85271 110.987 8.8551C112.008 7.83484 113.198 7.03708 114.563 6.46116L114.567 6.45971L114.57 6.45821ZM63.1399 6.10358V6.10321H69.5877V6.10358H63.1399ZM69.5877 12.0002V27.3399H63.1399V12.0002H69.5877ZM71.8891 10.8407V6.10321H86.3853V10.8407H82.2605V27.3399H76.014V10.8407H71.8891ZM88.6842 6.21633C88.6842 6.15385 88.7348 6.10321 88.7973 6.10321H95.8317C97.2123 6.10321 98.4733 6.28653 99.619 6.6472L99.6204 6.64765L99.6218 6.64808C100.789 7.00877 101.783 7.53483 102.615 8.22075C103.439 8.90121 104.08 9.74689 104.538 10.766L104.541 10.7724L104.544 10.7788C105.015 11.7628 105.26 12.9175 105.26 14.2567C105.26 15.3248 105.11 16.1994 104.83 16.8972C104.531 17.6457 104.207 18.2469 103.864 18.7116C103.45 19.2503 102.987 19.7015 102.476 20.0688L102.064 20.3656L106.027 27.3399H98.9376L94.696 20.1716V27.3399H88.6842V6.21633ZM133.059 27.3399V6.10321H139.172V12.2865L144.231 6.10321H151.565L144.136 15.7457L152.047 27.3399H144.796L139.172 19.1803V27.3399H133.059ZM97.842 9.68101C95.5275 8.71011 92.8642 9.79931 91.8933 12.1138C90.9224 14.4283 92.0116 17.0917 94.3261 18.0626C96.6406 19.0335 99.3039 17.9443 100.275 15.6298C101.246 13.3153 100.157 10.6519 97.842 9.68101ZM118.904 11.4778C118.182 11.4778 117.492 11.6152 116.839 11.8914L116.836 11.893L116.832 11.8946C116.21 12.1683 115.659 12.5433 115.184 13.0184C114.706 13.4964 114.331 14.06 114.059 14.7034C113.78 15.3374 113.644 16.0179 113.644 16.7383C113.644 17.4603 113.781 18.1502 114.057 18.8031L114.059 18.8069L114.06 18.8105C114.334 19.4326 114.709 19.983 115.184 20.4582C115.659 20.9334 116.21 21.3084 116.832 21.582L116.836 21.5837L116.839 21.5852C117.492 21.8615 118.182 21.9988 118.904 21.9988C119.624 21.9988 120.305 21.862 120.939 21.5837C121.582 21.311 122.146 20.9362 122.624 20.4582C123.099 19.983 123.474 19.4326 123.748 18.8105L123.749 18.8069L123.751 18.8031C124.027 18.1502 124.165 17.4603 124.165 16.7383C124.165 16.0179 124.028 15.3374 123.749 14.7034C123.477 14.06 123.102 13.4964 122.624 13.0184C122.146 12.5405 121.582 12.1657 120.939 11.893C120.305 11.6147 119.624 11.4778 118.904 11.4778Z" fill="#282689"/>
<circle cx="96.084" cy="13.842" r="2.53324" fill="#5CEAE1"/>
<rect x="63.1315" y="6.10352" width="6.45365" height="4.55921" fill="#5CEAE1"/>
<path d="M6.34703 1.63491C9.63122 0.238929 13.2548 0.0912765 16.7711 0C20.1505 0.0885958 23.6186 0.224159 26.8049 1.47652C28.9433 2.28324 30.8832 3.77855 31.9297 5.84298C32.5334 6.92623 32.7977 8.14637 33.0633 9.34503C33.4483 11.2484 33.4202 13.1986 33.5396 15.1263V18.2081C33.4268 20.1827 33.451 22.1786 33.0633 24.1277C32.7991 25.3222 32.5374 26.5397 31.9364 27.6203C30.89 29.6942 28.946 31.1948 26.7995 32.0028C23.6146 33.2498 20.1492 33.3894 16.7711 33.4766C13.5325 33.3894 10.2241 33.266 7.14662 32.1545C5.33548 31.5209 3.62362 30.47 2.44303 28.933C1.54685 27.7813 0.965942 26.4082 0.672139 24.984C0.0939069 22.8283 0.13281 20.58 0 18.3706V15.349C0.123429 12.3008 0.135496 9.13423 1.38719 6.29131C2.33301 4.14901 4.20319 2.51679 6.34703 1.63491Z" fill="#282689"/>
<path d="M18.5832 15.9253C18.7337 16.1127 18.7325 16.3799 18.5804 16.5659L16.8989 18.6227C16.6942 18.8731 16.3109 18.8715 16.1083 18.6193L14.8914 17.1044C14.7409 16.917 14.7421 16.6498 14.8942 16.4637L16.5758 14.4069C16.7805 14.1566 17.1638 14.1582 17.3664 14.4104L18.5832 15.9253ZM22.821 21.2129C23.0233 21.4657 23.4071 21.4677 23.6121 21.217L25.2088 19.264C25.3607 19.0782 25.3621 18.8115 25.2122 18.6241L23.5487 16.5452C23.3987 16.3578 23.4001 16.0911 23.5521 15.9053L25.1257 13.9806C25.3037 13.7628 25.2712 13.4418 25.0531 13.2641L23.1819 11.74C22.9643 11.5627 22.6444 11.5952 22.4667 11.8124L21.494 13.0021C21.2893 13.2525 20.906 13.2508 20.7035 12.9987L19.4867 11.4838C19.3362 11.2964 19.3374 11.0292 19.4895 10.8432L21.1049 8.86738C21.283 8.64957 21.2505 8.32857 21.0323 8.15089L19.1612 6.62679C18.9436 6.44957 18.6236 6.48198 18.446 6.69923L17.4179 7.95671C17.2129 8.20747 16.8288 8.20535 16.6266 7.95234L15.3071 6.30158C15.1049 6.04857 14.7208 6.04645 14.5158 6.29721L12.9192 8.25013C12.7673 8.43586 12.7659 8.70242 12.9156 8.88981L14.5074 10.8812C14.6571 11.0686 14.6557 11.3351 14.5038 11.5209L12.8226 13.5773C12.6176 13.828 12.2335 13.8259 12.0313 13.5729L10.7118 11.9221C10.5096 11.6691 10.1255 11.667 9.92052 11.9177L8.32387 13.8706C8.17203 14.0563 8.17055 14.3229 8.32033 14.5103L9.91213 16.5018C10.0619 16.6892 10.0604 16.9558 9.90859 17.1415L7.99662 19.4801C7.81854 19.6979 7.85105 20.0189 8.06919 20.1966L9.94033 21.7207C10.1579 21.8979 10.4779 21.8655 10.6555 21.6482L11.9805 20.0274C12.1852 19.7771 12.5685 19.7787 12.7711 20.0308L13.988 21.5458C14.1385 21.7332 14.1373 22.0004 13.9852 22.1865L12.0174 24.5933C11.8394 24.8112 11.8719 25.1322 12.09 25.3098L13.9611 26.8339C14.1787 27.0111 14.4987 26.9787 14.6763 26.7614L16.0429 25.0899C16.2478 24.8392 16.6317 24.8412 16.834 25.0941L18.2257 26.8333C18.4279 27.0862 18.8118 27.0882 19.0168 26.8375L20.6135 24.8845C20.7654 24.6987 20.7668 24.4321 20.6169 24.2447L18.9534 22.1657C18.8035 21.9783 18.8049 21.7116 18.9568 21.5258L20.6381 19.4694C20.843 19.2187 21.2269 19.2207 21.4292 19.4735L22.821 21.2129Z" fill="#5CEAE1"/>
<rect x="20.0443" y="12.9546" width="7.16085" height="6.95625" rx="3.47813" transform="rotate(90 20.0443 12.9546)" fill="#5CEAE1"/>
<circle cx="16.6028" cy="16.5674" r="3.41479" fill="#282689"/>
<circle cx="16.6028" cy="16.5675" r="1.85642" fill="#5CEAE1"/>
</svg>
