<svg width="24" height="24" viewBox="0 0 24 24" fill="none" xmlns="http://www.w3.org/2000/svg">
<mask id="mask0_47_506" style="mask-type:alpha" maskUnits="userSpaceOnUse" x="0" y="0" width="24" height="24">
<rect width="24" height="24" fill="#D9D9D9"/>
</mask>
<g mask="url(#mask0_47_506)">
</g>
<path d="M14.3438 15.0563L11.4562 12.2062V8.19375H12.5812V11.7375L15.15 14.25L14.3438 15.0563ZM11.9438 18.75C10.0813 18.75 8.5 18.0906 7.2 16.7719C5.9 15.4531 5.25 13.8563 5.25 11.9813H6.375C6.375 13.5438 6.9125 14.875 7.9875 15.975C9.0625 17.075 10.3813 17.625 11.9438 17.625C13.5313 17.625 14.875 17.0687 15.975 15.9562C17.075 14.8437 17.625 13.4937 17.625 11.9062C17.625 10.3563 17.0687 9.04687 15.9562 7.97812C14.8437 6.90937 13.5063 6.375 11.9438 6.375C11.0938 6.375 10.2969 6.56875 9.55313 6.95625C8.80938 7.34375 8.1625 7.85625 7.6125 8.49375H9.58125V9.61875H5.6625V5.71875H6.7875V7.70625C7.4375 6.94375 8.20937 6.34375 9.10312 5.90625C9.99687 5.46875 10.9438 5.25 11.9438 5.25C12.8813 5.25 13.7625 5.425 14.5875 5.775C15.4125 6.125 16.1344 6.60313 16.7531 7.20938C17.3719 7.81563 17.8594 8.525 18.2156 9.3375C18.5719 10.15 18.75 11.025 18.75 11.9625C18.75 12.9 18.5719 13.7813 18.2156 14.6063C17.8594 15.4313 17.3719 16.15 16.7531 16.7625C16.1344 17.375 15.4125 17.8594 14.5875 18.2156C13.7625 18.5719 12.8813 18.75 11.9438 18.75Z" fill="white"/>
</svg>
