<svg width="31" height="31" viewBox="0 0 31 31" fill="none" xmlns="http://www.w3.org/2000/svg">
<path d="M22.9142 29.3854H9.86833C9.46791 29.3854 9.10625 29.14 8.96417 28.7525C8.82209 28.365 8.92541 27.9517 9.23541 27.6804C10.1396 26.8796 10.6692 25.73 10.6692 24.5288C10.6692 22.2167 8.78332 20.3308 6.47124 20.3308C5.51541 20.3308 4.61124 20.6538 3.84916 21.2609C3.55208 21.4934 3.16459 21.5321 2.82875 21.3771C2.49292 21.2221 2.28625 20.8733 2.28625 20.4988V14.8542C2.28625 11.6379 4.89541 9.02875 8.11166 9.02875H22.94C26.1562 9.02875 28.7654 11.6379 28.7654 14.8542V16.7142C28.7654 17.2438 28.3263 17.6829 27.7967 17.6829H25.1875C24.7354 17.6829 24.3221 17.8508 24.025 18.1608L24.0121 18.1738C23.6504 18.5225 23.4825 19.0005 23.5213 19.4913C23.5988 20.3438 24.4125 21.0284 25.3425 21.0284H27.7967C28.3263 21.0284 28.7654 21.4676 28.7654 21.9971V23.5341C28.7396 26.7762 26.1304 29.3854 22.9142 29.3854ZM11.8575 27.4479H22.9142C25.0583 27.4479 26.8021 25.7042 26.8021 23.56V22.9917H25.3167C23.3663 22.9917 21.7129 21.545 21.5579 19.685C21.4546 18.6258 21.8421 17.5796 22.6171 16.8175C23.2887 16.133 24.1929 15.7584 25.1617 15.7584H26.8021V14.8671C26.8021 12.7229 25.0583 10.9792 22.9142 10.9792H8.08582C5.94166 10.9792 4.19792 12.7229 4.19792 14.8671V18.8455C4.92125 18.5613 5.68333 18.4063 6.45833 18.4063C9.8425 18.4063 12.5937 21.1575 12.5937 24.5417C12.5937 25.5621 12.3354 26.5696 11.8575 27.4479Z" fill="#282689"/>
<path d="M3.22913 15.836C2.69954 15.836 2.26038 15.3968 2.26038 14.8672V10.1268C2.26038 8.20222 3.46164 6.44549 5.25705 5.77382L15.5129 1.89882C16.572 1.51132 17.7604 1.65348 18.6775 2.29931C19.5946 2.94514 20.15 3.99137 20.15 5.10221V10.0105C20.15 10.5401 19.7108 10.9793 19.1812 10.9793C18.6516 10.9793 18.2125 10.5401 18.2125 10.0105V5.10221C18.2125 4.61137 17.98 4.1722 17.5795 3.88803C17.1662 3.60387 16.6625 3.53927 16.1975 3.70718L5.94163 7.58218C4.88247 7.9826 4.19788 8.97723 4.19788 10.1268V14.8672C4.19788 15.3968 3.75871 15.836 3.22913 15.836Z" fill="#282689"/>
<path d="M25.3167 22.9916C23.3663 22.9916 21.7129 21.5449 21.5579 19.6849C21.4546 18.6128 21.8421 17.5666 22.6171 16.8045C23.2758 16.1329 24.18 15.7583 25.1488 15.7583H27.8354C29.1142 15.797 30.0959 16.8045 30.0959 18.0445V20.7054C30.0959 21.9454 29.1142 22.9528 27.8742 22.9916H25.3167ZM27.8096 17.6958H25.1617C24.7096 17.6958 24.2963 17.8637 23.9992 18.1737C23.6246 18.5353 23.4438 19.0262 23.4954 19.517C23.5729 20.3695 24.3867 21.0541 25.3167 21.0541H27.8484C28.0163 21.0541 28.1713 20.8991 28.1713 20.7054V18.0445C28.1713 17.8507 28.0163 17.7087 27.8096 17.6958Z" fill="#282689"/>
<path d="M18.0833 16.4687H9.04163C8.51204 16.4687 8.07288 16.0296 8.07288 15.5C8.07288 14.9704 8.51204 14.5312 9.04163 14.5312H18.0833C18.6129 14.5312 19.052 14.9704 19.052 15.5C19.052 16.0296 18.6129 16.4687 18.0833 16.4687Z" fill="#282689"/>
<path d="M6.45829 30.6771C3.07413 30.6771 0.322876 27.9258 0.322876 24.5417C0.322876 22.6558 1.16246 20.9121 2.62204 19.7496C3.70704 18.8841 5.07621 18.4062 6.45829 18.4062C9.84246 18.4062 12.5937 21.1575 12.5937 24.5417C12.5937 26.2983 11.8316 27.9775 10.5141 29.14C9.37746 30.1346 7.94371 30.6771 6.45829 30.6771ZM6.45829 20.3437C5.50246 20.3437 4.59829 20.6666 3.83621 21.2737C2.84163 22.0616 2.26038 23.2629 2.26038 24.5417C2.26038 26.8537 4.14621 28.7396 6.45829 28.7396C7.46579 28.7396 8.44745 28.365 9.23537 27.6933C10.1395 26.8925 10.6562 25.7558 10.6562 24.5417C10.6562 22.2296 8.77037 20.3437 6.45829 20.3437Z" fill="#282689"/>
<path d="M5.16656 26.8021C4.84364 26.8021 4.52072 26.6342 4.33989 26.3371C4.06864 25.8721 4.21072 25.2779 4.67572 25.0067L5.8253 24.3221V22.9271C5.8253 22.3975 6.26447 21.9583 6.79405 21.9583C7.32363 21.9583 7.7628 22.3975 7.7628 22.9271V24.8646C7.7628 25.2004 7.58197 25.5234 7.2978 25.6913L5.68322 26.66C5.5153 26.7634 5.33447 26.8021 5.16656 26.8021Z" fill="#282689"/>
</svg>
