<svg width="273" height="65" viewBox="0 0 273 65" fill="none" xmlns="http://www.w3.org/2000/svg">
<path fill-rule="evenodd" clip-rule="evenodd" d="M92.4768 14.5566C94.8497 13.6316 97.3759 13.1665 100.063 13.1665C102.222 13.1665 104.106 13.3746 105.724 13.7784L105.727 13.7791L105.73 13.7797C107.443 14.1978 108.886 14.6673 110.067 15.1829L110.069 15.1837L110.071 15.1846C111.129 15.6412 112.067 16.1257 112.889 16.6359L107.746 25.6787C107.354 25.4174 106.943 25.1632 106.516 24.9162L106.479 24.8951L106.441 24.8774C105.726 24.5417 104.885 24.2356 103.926 23.9555C102.912 23.6069 101.775 23.4429 100.531 23.4429C99.2044 23.4429 97.9623 23.6783 96.8168 24.1619C95.6978 24.6343 94.7017 25.2818 93.8349 26.1036L93.8258 26.1123L93.8169 26.1212C92.9843 26.952 92.3315 27.9319 91.8563 29.0503C91.3715 30.1525 91.1332 31.3357 91.1332 32.5881C91.1332 33.8432 91.3724 35.0426 91.8537 36.1776L91.8627 36.1991L91.8728 36.2201C92.3916 37.2988 93.0856 38.2514 93.9517 39.0726C94.8248 39.9002 95.8455 40.5481 97.0043 41.0193C98.1849 41.4993 99.4615 41.7332 100.823 41.7332C102.149 41.7332 103.363 41.5679 104.453 41.2201C105.469 40.8955 106.354 40.5213 107.093 40.089C107.553 39.8356 107.985 39.5558 108.388 39.2492L113.504 48.2438C112.673 48.8392 111.72 49.3856 110.643 49.8803C109.456 50.3978 108.009 50.8868 106.294 51.3432C104.641 51.783 102.724 52.0097 100.531 52.0097C97.602 52.0097 94.9196 51.542 92.4735 50.6183C90.0168 49.6516 87.9098 48.3202 86.1405 46.628C84.373 44.9375 82.9879 42.9138 81.9863 40.5452C80.9903 38.1514 80.4854 35.5033 80.4854 32.5881C80.4854 29.5948 81.0099 26.9334 82.0385 24.587L82.0397 24.5845L82.0408 24.5819C83.0825 22.1685 84.4892 20.1226 86.2573 18.4317C88.0275 16.7386 90.0933 15.4487 92.4644 14.5614L92.4706 14.559L92.4768 14.5566ZM206.836 14.7164C209.2 13.6842 211.714 13.1665 214.387 13.1665C217.059 13.1665 219.572 13.6842 221.936 14.7164L221.942 14.719L221.948 14.7215C224.324 15.722 226.375 17.1068 228.112 18.876L228.118 18.8833L228.125 18.8907C229.899 20.623 231.286 22.6701 232.288 25.0415L232.291 25.0475L232.294 25.0535C233.328 27.4127 233.847 29.921 233.847 32.5881C233.847 35.255 233.328 37.7633 232.294 40.1227L232.291 40.1287L232.288 40.1346C231.285 42.5079 229.896 44.5774 228.118 46.3511C226.381 48.0852 224.326 49.474 221.942 50.5154C219.576 51.5102 217.061 52.0097 214.387 52.0097C211.711 52.0097 209.196 51.5102 206.83 50.5154C204.448 49.4747 202.373 48.0863 200.595 46.3512C198.856 44.577 197.465 42.5054 196.423 40.1282C195.425 37.7681 194.925 35.2577 194.925 32.5881C194.925 29.9185 195.425 27.4082 196.423 25.0478C197.466 22.6694 198.858 20.6177 200.595 18.8833C202.372 17.1097 204.446 15.7228 206.824 14.7215L206.83 14.719L206.836 14.7164ZM117.245 14.0999V14.0993H128.477V14.0999H117.245ZM128.477 24.3509V51.0185H117.245V24.3509H128.477ZM132.486 22.3353V14.0993H157.739V22.3353H150.553V51.0185H139.672V22.3353H132.486ZM161.743 14.296C161.743 14.1873 161.832 14.0993 161.94 14.0993H174.195C176.599 14.0993 178.796 14.418 180.791 15.045L180.794 15.0457L180.797 15.0465C182.83 15.6736 184.562 16.5881 186.01 17.7806C187.447 18.9636 188.563 20.4337 189.361 22.2054L189.365 22.2166L189.37 22.2275C190.192 23.9383 190.618 25.9457 190.618 28.2739C190.618 30.1307 190.356 31.6511 189.869 32.8641C189.348 34.1655 188.784 35.2108 188.187 36.0186C187.465 36.955 186.659 37.7394 185.769 38.3779L185.051 38.8939L191.954 51.0185H179.605L172.216 38.5568V51.0185H161.743V14.296ZM239.044 51.0185V14.0993H249.692V24.8487L258.505 14.0993H271.282L258.34 30.8623L272.121 51.0185H259.49L249.692 36.8333V51.0185H239.044ZM177.697 20.3191C173.664 18.6312 169.024 20.5248 167.334 24.5486C165.642 28.5722 167.54 33.2024 171.571 34.8902C175.603 36.5781 180.242 34.6846 181.934 30.6609C183.625 26.6373 181.728 22.0071 177.697 20.3191ZM214.387 23.4429C213.128 23.4429 211.927 23.6817 210.789 24.1619L210.782 24.1647L210.777 24.1674C209.693 24.6433 208.734 25.2951 207.905 26.1212C207.074 26.952 206.421 27.9319 205.946 29.0503C205.461 30.1525 205.223 31.3357 205.223 32.5881C205.223 33.8432 205.462 35.0426 205.943 36.1776L205.946 36.1841L205.949 36.1905C206.425 37.2718 207.078 38.2289 207.905 39.0549C208.734 39.8811 209.693 40.5329 210.777 41.0086L210.782 41.0115L210.789 41.0142C211.927 41.4945 213.128 41.7332 214.387 41.7332C215.641 41.7332 216.826 41.4955 217.93 41.0115C219.051 40.5375 220.034 39.8859 220.867 39.0549C221.694 38.2289 222.347 37.2718 222.823 36.1905L222.826 36.1841L222.829 36.1776C223.311 35.0426 223.55 33.8432 223.55 32.5881C223.55 31.3357 223.311 30.1525 222.826 29.0503C222.351 27.9319 221.698 26.952 220.867 26.1212C220.034 25.2903 219.051 24.6387 217.932 24.1647C216.827 23.6808 215.641 23.4429 214.387 23.4429Z" fill="#282689"/>
<path d="M174.634 31.9566C177.071 31.9566 179.046 29.9849 179.046 27.5526C179.046 25.1204 177.071 23.1487 174.634 23.1487C172.196 23.1487 170.221 25.1204 170.221 27.5526C170.221 29.9849 172.196 31.9566 174.634 31.9566Z" fill="#2EEFC1"/>
<path d="M128.473 14.0999H117.23V22.0259H128.473V14.0999Z" fill="#2EEFC1"/>
<path d="M12.7981 3.39916C19.1581 0.701259 26.1753 0.415904 32.9848 0.239502C39.529 0.410723 46.2451 0.672715 52.4155 3.09304C56.5566 4.65211 60.3132 7.54197 62.3398 11.5317C63.509 13.6252 64.0209 15.9833 64.5351 18.2998C65.2808 21.9783 65.2262 25.7474 65.4575 29.4728V35.4287C65.2391 39.2448 65.286 43.1022 64.5351 46.869C64.0234 49.1776 63.5166 51.5305 62.3528 53.6188C60.3264 57.6268 56.5617 60.527 52.4049 62.0885C46.2374 64.4984 39.5265 64.7683 32.9848 64.9369C26.7131 64.7683 20.3062 64.5298 14.3465 62.3817C10.8392 61.1572 7.52411 59.1262 5.23785 56.1557C3.50236 53.9299 2.37742 51.2763 1.80846 48.5239C0.68869 44.3576 0.764028 40.0127 0.506836 35.7426V29.9032C0.745859 24.0122 0.769229 17.8924 3.19318 12.3982C5.02479 8.25792 8.64646 5.10349 12.7981 3.39916Z" fill="#282689"/>
<path d="M36.4942 31.0167C36.7857 31.3788 36.7834 31.8952 36.4888 32.2547L33.2325 36.2297C32.8362 36.7136 32.0938 36.7104 31.7016 36.2232L29.3451 33.2953C29.0535 32.9331 29.0557 32.4168 29.3505 32.0571L32.607 28.0822C33.0034 27.5983 33.7457 27.6016 34.1378 28.0888L36.4942 31.0167ZM44.7009 41.2354C45.0926 41.724 45.8361 41.7279 46.233 41.2434L49.3251 37.469C49.6192 37.11 49.6219 36.5945 49.3316 36.2323L46.1102 32.2146C45.8197 31.8524 45.8225 31.3371 46.1167 30.978L49.1641 27.2582C49.5088 26.8372 49.4459 26.2169 49.0235 25.8735L45.3998 22.9279C44.9786 22.5855 44.3588 22.6482 44.0149 23.068L42.1312 25.3672C41.7349 25.8511 40.9925 25.848 40.6003 25.3606L38.2441 22.4328C37.9525 22.0708 37.9549 21.5544 38.2495 21.1948L41.3776 17.3764C41.7225 16.9554 41.6596 16.335 41.2371 15.9916L37.6135 13.0462C37.1923 12.7037 36.5725 12.7663 36.2286 13.1862L34.2376 15.6164C33.8406 16.101 33.097 16.0968 32.7054 15.608L30.1501 12.4177C29.7585 11.9287 29.0147 11.9246 28.6177 12.4092L25.5257 16.1834C25.2317 16.5424 25.2289 17.0576 25.5189 17.4197L28.6013 21.2682C28.8914 21.6304 28.8885 22.1456 28.5944 22.5045L25.3386 26.4787C24.9416 26.9633 24.198 26.9593 23.8062 26.4703L21.2511 23.2799C20.8594 22.791 20.1158 22.7869 19.7187 23.2715L16.6268 27.0458C16.3327 27.4046 16.3298 27.9198 16.6198 28.282L19.7025 32.1308C19.9926 32.4929 19.9896 33.0081 19.6956 33.3671L15.993 37.8866C15.6481 38.3076 15.7112 38.9279 16.1336 39.2713L19.7571 42.2168C20.1784 42.5593 20.7981 42.4967 21.1421 42.0768L23.708 38.9445C24.1045 38.4606 24.8467 38.4638 25.2389 38.951L27.5955 41.8789C27.887 42.2411 27.8848 42.7574 27.5901 43.1169L23.7795 47.7686C23.4346 48.1896 23.4976 48.8098 23.92 49.1532L27.5434 52.0987C27.9649 52.4411 28.5844 52.3785 28.9284 51.9586L31.575 48.7282C31.9719 48.2438 32.7152 48.2476 33.107 48.7363L35.8019 52.0976C36.1937 52.5862 36.9371 52.5902 37.334 52.1057L40.4261 48.3313C40.7202 47.9723 40.723 47.4569 40.4326 47.0947L37.2112 43.0768C36.9209 42.7148 36.9237 42.1993 37.2179 41.8403L40.4737 37.8659C40.8705 37.3814 41.6139 37.3853 42.0056 37.8739L44.7009 41.2354Z" fill="#2EEFC1"/>
<path d="M39.3232 32.3925V31.997C39.3232 28.2846 36.3076 25.2751 32.5877 25.2751C28.8678 25.2751 25.8522 28.2846 25.8522 31.997V32.3925C25.8522 36.1049 28.8678 39.1143 32.5877 39.1143C36.3076 39.1143 39.3232 36.1049 39.3232 32.3925Z" fill="#2EEFC1"/>
<path d="M32.6588 38.8572C36.311 38.8572 39.2717 35.9025 39.2717 32.2577C39.2717 28.6129 36.311 25.6582 32.6588 25.6582C29.0066 25.6582 26.0459 28.6129 26.0459 32.2577C26.0459 35.9025 29.0066 38.8572 32.6588 38.8572Z" fill="#282689"/>
<path d="M32.6585 35.8454C34.644 35.8454 36.2535 34.2391 36.2535 32.2577C36.2535 30.2762 34.644 28.6699 32.6585 28.6699C30.673 28.6699 29.0635 30.2762 29.0635 32.2577C29.0635 34.2391 30.673 35.8454 32.6585 35.8454Z" fill="#2EEFC1"/>
</svg>
