<svg width="93" height="22" viewBox="0 0 93 22" fill="none" xmlns="http://www.w3.org/2000/svg">
<path fill-rule="evenodd" clip-rule="evenodd" d="M31.503 4.92678C32.3113 4.61371 33.1719 4.4563 34.0873 4.4563C34.8228 4.4563 35.4645 4.52674 36.0159 4.66341L36.0168 4.66362L36.0176 4.66383C36.6015 4.80535 37.0929 4.96427 37.4951 5.13877L37.4958 5.13905L37.4964 5.13933C37.8569 5.2939 38.1766 5.45787 38.4567 5.63054L36.7047 8.69121C36.5709 8.60274 36.431 8.51671 36.2854 8.43311L36.273 8.42599L36.2601 8.42C36.0166 8.30635 35.73 8.20276 35.4033 8.10798C35.0577 7.98997 34.6704 7.93446 34.2466 7.93446C33.7948 7.93446 33.3717 8.01412 32.9814 8.17781C32.6002 8.33771 32.2609 8.55687 31.9656 8.83501L31.9625 8.83795L31.9595 8.84095C31.6759 9.12218 31.4535 9.45381 31.2916 9.83236C31.1264 10.2054 31.0453 10.6059 31.0453 11.0298C31.0453 11.4546 31.1267 11.8605 31.2907 12.2447L31.2938 12.2519L31.2972 12.259C31.4739 12.6242 31.7104 12.9466 32.0054 13.2245C32.3028 13.5046 32.6506 13.7239 33.0453 13.8834C33.4475 14.0459 33.8824 14.125 34.346 14.125C34.798 14.125 35.2116 14.0691 35.5827 13.9514C35.9288 13.8415 36.2304 13.7148 36.4822 13.5685C36.6389 13.4828 36.7861 13.3881 36.9234 13.2843L38.666 16.3286C38.3829 16.5301 38.0585 16.7151 37.6913 16.8825C37.287 17.0577 36.7941 17.2232 36.2098 17.3777C35.647 17.5265 34.9936 17.6032 34.2466 17.6032C33.2489 17.6032 32.3351 17.4449 31.5019 17.1323C30.6649 16.8051 29.9472 16.3545 29.3444 15.7817C28.7423 15.2096 28.2705 14.5246 27.9293 13.7229C27.59 12.9127 27.418 12.0164 27.418 11.0298C27.418 10.0166 27.5967 9.11586 27.9471 8.3217L27.9475 8.32086L27.9478 8.31997C28.3027 7.50312 28.7819 6.81068 29.3842 6.23835C29.9873 5.66532 30.691 5.22874 31.4987 4.92841L31.5009 4.92762L31.503 4.92678ZM70.4604 4.98089C71.2657 4.63153 72.1221 4.4563 73.0327 4.4563C73.9429 4.4563 74.7992 4.63153 75.6046 4.98089L75.6065 4.98178L75.6084 4.98262C76.418 5.32123 77.1167 5.78992 77.7082 6.38875L77.7106 6.39123L77.7129 6.39371C78.3172 6.98003 78.7897 7.67289 79.1311 8.47552L79.132 8.47758L79.133 8.47959C79.4851 9.2781 79.6622 10.1271 79.6622 11.0298C79.6622 11.9324 79.4851 12.7814 79.133 13.5799L79.132 13.582L79.1311 13.584C78.7893 14.3872 78.3163 15.0877 77.7106 15.688C77.1186 16.2749 76.4185 16.745 75.6065 17.0975C74.8007 17.4342 73.9438 17.6032 73.0327 17.6032C72.1211 17.6032 71.2643 17.4342 70.4585 17.0975C69.647 16.7452 68.9403 16.2753 68.3346 15.6881C67.7421 15.0875 67.2681 14.3864 66.9131 13.5818C66.5732 12.783 66.4028 11.9333 66.4028 11.0298C66.4028 10.1262 66.5732 9.27655 66.9131 8.47767C67.2686 7.67266 67.7426 6.97825 68.3346 6.39123C68.9398 5.79091 69.6465 5.32151 70.4566 4.98262L70.4585 4.98178L70.4604 4.98089ZM39.9406 4.77221V4.77203H43.7668V4.77221H39.9406ZM43.7668 8.2418V17.2677H39.9406V8.2418H43.7668ZM45.1326 7.55957V4.77203H53.735V7.55957H51.2872V17.2677H47.5805V7.55957H45.1326ZM55.0993 4.83859C55.0993 4.8018 55.1295 4.77203 55.1663 4.77203H59.3409C60.16 4.77203 60.9083 4.87987 61.5881 5.0921L61.589 5.09234L61.5899 5.09262C62.2825 5.30485 62.8726 5.61439 63.3659 6.01798C63.8555 6.41838 64.2355 6.91595 64.5074 7.51561L64.5088 7.51941L64.5107 7.5231C64.7907 8.10213 64.9356 8.78155 64.9356 9.56957C64.9356 10.198 64.8464 10.7126 64.6807 11.1232C64.5032 11.5637 64.311 11.9174 64.1076 12.1908C63.8616 12.5078 63.5868 12.7733 63.2838 12.9894L63.0392 13.164L65.3907 17.2677H61.184L58.6668 13.0499V17.2677H55.0993V4.83859ZM81.4325 17.2677V4.77203H85.0599V8.41027L88.0619 4.77203H92.4145L88.0057 10.4456L92.7006 17.2677H88.3976L85.0599 12.4666V17.2677H81.4325ZM60.5339 6.87719C59.1601 6.3059 57.5796 6.9468 57.0037 8.30869C56.4273 9.67054 57.074 11.2377 58.4473 11.8089C59.8206 12.3802 61.4011 11.7393 61.9775 10.3775C62.5535 9.01564 61.9072 7.44849 60.5339 6.87719ZM73.0327 7.93446C72.6041 7.93446 72.1948 8.0153 71.8072 8.17781L71.8048 8.17875L71.8029 8.17969C71.4338 8.34075 71.1071 8.56136 70.8248 8.84095C70.5415 9.12218 70.3192 9.45381 70.1573 9.83236C69.9921 10.2054 69.9109 10.6059 69.9109 11.0298C69.9109 11.4546 69.9925 11.8605 70.1563 12.2447L70.1573 12.2469L70.1582 12.249C70.3206 12.615 70.543 12.9389 70.8248 13.2185C71.1071 13.4982 71.4338 13.7188 71.8029 13.8798L71.8048 13.8808L71.8072 13.8817C72.1948 14.0442 72.6041 14.125 73.0327 14.125C73.46 14.125 73.8636 14.0446 74.2398 13.8808C74.6217 13.7203 74.9565 13.4998 75.2402 13.2185C75.522 12.9389 75.7444 12.615 75.9068 12.249L75.9077 12.2469L75.9086 12.2447C76.0729 11.8605 76.1541 11.4546 76.1541 11.0298C76.1541 10.6059 76.0729 10.2054 75.9077 9.83236C75.7458 9.45381 75.5234 9.12218 75.2402 8.84095C74.9565 8.55972 74.6217 8.33921 74.2403 8.17875C73.8641 8.01497 73.46 7.93446 73.0327 7.93446Z" fill="#282689"/>
<path d="M59.4906 10.8161C60.3208 10.8161 60.9939 10.1487 60.9939 9.32553C60.9939 8.50231 60.3208 7.83496 59.4906 7.83496C58.6603 7.83496 57.9873 8.50231 57.9873 9.32553C57.9873 10.1487 58.6603 10.8161 59.4906 10.8161Z" fill="#2EEFC1"/>
<path d="M43.7653 4.77222H39.9355V7.45487H43.7653V4.77222Z" fill="#2EEFC1"/>
<path d="M4.35998 1.15048C6.52658 0.237342 8.91706 0.14076 11.2368 0.0810547C13.4661 0.139006 15.754 0.22768 17.856 1.04687C19.2667 1.57455 20.5464 2.55266 21.2368 3.90303C21.6351 4.61161 21.8095 5.40974 21.9847 6.19378C22.2387 7.43879 22.2201 8.71451 22.2989 9.97539V11.9912C22.2245 13.2828 22.2405 14.5884 21.9847 15.8633C21.8104 16.6447 21.6377 17.4411 21.2413 18.1479C20.5509 19.5044 19.2685 20.4861 17.8524 21.0146C15.7514 21.8302 13.4653 21.9216 11.2368 21.9786C9.10027 21.9216 6.9177 21.8408 4.88747 21.1138C3.69266 20.6994 2.56335 20.0119 1.78452 19.0065C1.19331 18.2532 0.810084 17.355 0.616262 16.4235C0.234802 15.0133 0.260467 13.5428 0.172852 12.0975V10.1211C0.254277 8.12721 0.262238 6.05588 1.08798 4.1963C1.71193 2.79498 2.94569 1.72733 4.35998 1.15048Z" fill="#282689"/>
<path d="M12.4318 10.4979C12.5311 10.6205 12.5303 10.7953 12.43 10.917L11.3207 12.2623C11.1856 12.4261 10.9328 12.425 10.7992 12.2601L9.99638 11.2692C9.89705 11.1466 9.89781 10.9718 9.99822 10.8501L11.1076 9.50471C11.2426 9.34093 11.4955 9.34205 11.6291 9.50696L12.4318 10.4979ZM15.2275 13.9566C15.3609 14.122 15.6142 14.1233 15.7494 13.9593L16.8028 12.6818C16.9029 12.5603 16.9039 12.3858 16.805 12.2632L15.7076 10.9034C15.6086 10.7808 15.6096 10.6064 15.7098 10.4848L16.7479 9.22583C16.8654 9.08334 16.8439 8.8734 16.7 8.75718L15.4656 7.7602C15.3221 7.64431 15.111 7.66551 14.9938 7.80762L14.3521 8.58581C14.2171 8.7496 13.9642 8.74852 13.8306 8.58357L13.0279 7.59263C12.9286 7.47009 12.9294 7.2953 13.0297 7.1736L14.0954 5.88122C14.2129 5.73873 14.1914 5.52875 14.0475 5.41252L12.8131 4.41561C12.6696 4.29969 12.4585 4.32089 12.3413 4.463L11.6631 5.28553C11.5278 5.44955 11.2745 5.44815 11.1411 5.28268L10.2706 4.20288C10.1372 4.03739 9.88384 4.036 9.74858 4.20003L8.69528 5.47745C8.5951 5.59896 8.59416 5.77332 8.69296 5.89587L9.74301 7.19846C9.84182 7.32105 9.84083 7.49541 9.74065 7.61688L8.63155 8.96201C8.4963 9.12603 8.24298 9.12467 8.10952 8.95916L7.2391 7.87933C7.10564 7.71387 6.85232 7.71246 6.71707 7.87648L5.66376 9.15393C5.56358 9.2754 5.56259 9.44976 5.6614 9.57235L6.71154 10.875C6.81035 10.9976 6.80936 11.1719 6.70918 11.2935L5.44788 12.8232C5.33038 12.9656 5.35186 13.1756 5.49575 13.2918L6.73014 14.2887C6.87366 14.4047 7.08477 14.3835 7.20194 14.2414L8.07605 13.1812C8.21111 13.0174 8.46396 13.0185 8.59756 13.1834L9.40038 14.1744C9.49966 14.297 9.4989 14.4717 9.39854 14.5934L8.10041 16.1678C7.98291 16.3103 8.00439 16.5202 8.14828 16.6365L9.38263 17.6334C9.52619 17.7493 9.73726 17.7281 9.85443 17.586L10.756 16.4926C10.8912 16.3286 11.1444 16.33 11.2779 16.4953L12.1959 17.633C12.3294 17.7984 12.5827 17.7997 12.7179 17.6358L13.7712 16.3583C13.8714 16.2368 13.8724 16.0623 13.7735 15.9397L12.6761 14.5798C12.5772 14.4573 12.5781 14.2828 12.6783 14.1613L13.7874 12.8161C13.9226 12.6522 14.1759 12.6535 14.3093 12.8188L15.2275 13.9566Z" fill="#2EEFC1"/>
<path d="M13.3955 10.9636V10.8298C13.3955 9.57328 12.3682 8.55469 11.101 8.55469C9.83376 8.55469 8.80647 9.57328 8.80647 10.8298V10.9636C8.80647 12.2201 9.83376 13.2387 11.101 13.2387C12.3682 13.2387 13.3955 12.2201 13.3955 10.9636Z" fill="#2EEFC1"/>
<path d="M11.1258 13.1517C12.3699 13.1517 13.3785 12.1516 13.3785 10.918C13.3785 9.68437 12.3699 8.68433 11.1258 8.68433C9.88163 8.68433 8.87305 9.68437 8.87305 10.918C8.87305 12.1516 9.88163 13.1517 11.1258 13.1517Z" fill="#282689"/>
<path d="M11.126 12.1322C11.8024 12.1322 12.3507 11.5886 12.3507 10.9179C12.3507 10.2473 11.8024 9.70361 11.126 9.70361C10.4497 9.70361 9.90137 10.2473 9.90137 10.9179C9.90137 11.5886 10.4497 12.1322 11.126 12.1322Z" fill="#2EEFC1"/>
</svg>
