<svg width="16" height="17" viewBox="0 0 16 17" fill="none" xmlns="http://www.w3.org/2000/svg">
<g clip-path="url(#clip0_109_64)">
<path fill-rule="evenodd" clip-rule="evenodd" d="M10.121 1.37812C9.55842 0.815702 8.7955 0.499756 8 0.499756C7.20451 0.499756 6.44159 0.815702 5.879 1.37812L0.877004 5.38012C0.598401 5.65831 0.377505 5.98881 0.227003 6.35262C0.0765001 6.71644 -0.000643078 7.1064 4.0377e-06 7.50012V14.5001C4.0377e-06 15.0305 0.210718 15.5393 0.585791 15.9143C0.960863 16.2894 1.46957 16.5001 2 16.5001H14C14.5304 16.5001 15.0391 16.2894 15.4142 15.9143C15.7893 15.5393 16 15.0305 16 14.5001V7.50012C16.0006 7.10593 15.9232 6.71552 15.7724 6.35135C15.6215 5.98717 15.4002 5.65642 15.121 5.37812L10.121 1.37812ZM13.163 6.36412L8 9.34412L2.836 6.36412L7.293 2.79912C7.48053 2.61164 7.73484 2.50633 8 2.50633C8.26517 2.50633 8.51948 2.61164 8.707 2.79912L13.163 6.36412ZM14.001 8.18912L8.511 11.3591C8.35844 11.4509 8.184 11.5 8.00596 11.5012C7.82792 11.5024 7.65282 11.4558 7.499 11.3661L2 8.19012V14.5001H14V8.19012L14.001 8.18912Z" fill="#7C828D"/>
</g>
<defs>
<clipPath id="clip0_109_64">
<rect width="16" height="16" fill="white" transform="translate(0 0.5)"/>
</clipPath>
</defs>
</svg>
