<svg width="18" height="18" viewBox="0 0 18 18" fill="none" xmlns="http://www.w3.org/2000/svg">
<path d="M12.9 17.0623C10.605 17.0623 8.73755 15.1948 8.73755 12.8998C8.73755 10.6048 10.605 8.7373 12.9 8.7373C15.195 8.7373 17.0625 10.6048 17.0625 12.8998C17.0625 15.1948 15.195 17.0623 12.9 17.0623ZM12.9 9.8623C11.2275 9.8623 9.86255 11.2273 9.86255 12.8998C9.86255 14.5723 11.2275 15.9373 12.9 15.9373C14.5725 15.9373 15.9375 14.5723 15.9375 12.8998C15.9375 11.2273 14.5725 9.8623 12.9 9.8623Z" fill="white"/>
<path d="M14.2425 13.5073H11.55C11.2425 13.5073 10.9875 13.2523 10.9875 12.9448C10.9875 12.6373 11.2425 12.3823 11.55 12.3823H14.2425C14.55 12.3823 14.805 12.6373 14.805 12.9448C14.805 13.2523 14.5575 13.5073 14.2425 13.5073Z" fill="white"/>
<path d="M12.9003 14.8873C12.5928 14.8873 12.3378 14.6323 12.3378 14.3248V11.6323C12.3378 11.3248 12.5928 11.0698 12.9003 11.0698C13.2078 11.0698 13.4628 11.3248 13.4628 11.6323V14.3248C13.4628 14.6323 13.2078 14.8873 12.9003 14.8873Z" fill="white"/>
<path d="M9.00012 16.2373C8.76762 16.2373 8.53513 16.2073 8.34763 16.1398C6.42763 15.4873 0.937622 12.3073 0.937622 6.51729C0.937622 3.89229 3.06012 1.76227 5.67012 1.76227C6.92262 1.76227 8.12262 2.26479 9.00012 3.14229C9.87762 2.26479 11.0851 1.76227 12.3301 1.76227C14.9401 1.76227 17.0626 3.89229 17.0626 6.51729C17.0626 7.97979 16.7101 9.38229 16.0126 10.6948C15.9301 10.8523 15.7726 10.9648 15.5926 10.9873C15.4051 11.0098 15.2326 10.9498 15.1051 10.8148C14.5201 10.1998 13.7326 9.8548 12.8926 9.8548C11.2201 9.8548 9.85513 11.2198 9.85513 12.8923C9.85513 13.6348 10.1326 14.3548 10.6351 14.9173C10.7551 15.0523 10.8001 15.2323 10.7626 15.4048C10.7251 15.5773 10.6051 15.7273 10.4476 15.8023C10.1476 15.9373 9.87764 16.0498 9.63014 16.1323C9.45764 16.2073 9.23262 16.2373 9.00012 16.2373ZM5.67012 2.88727C3.68262 2.88727 2.06262 4.51479 2.06262 6.51729C2.06262 11.6473 6.99012 14.4823 8.71512 15.0748C8.85012 15.1273 9.14262 15.1198 9.27762 15.0748C9.30012 15.0673 9.32264 15.0598 9.34514 15.0523C8.95514 14.4073 8.73764 13.6648 8.73764 12.8998C8.73764 10.6048 10.6051 8.7373 12.9001 8.7373C13.7851 8.7373 14.6251 9.01479 15.3301 9.51729C15.7351 8.55729 15.9376 7.55229 15.9376 6.51729C15.9376 4.51479 14.3176 2.88727 12.3301 2.88727C11.2051 2.88727 10.1251 3.42731 9.4501 4.33481C9.2401 4.61981 8.76014 4.61981 8.55014 4.33481C7.87514 3.42731 6.79512 2.88727 5.67012 2.88727Z" fill="white"/>
</svg>
