<svg width="31" height="31" viewBox="0 0 31 31" fill="none" xmlns="http://www.w3.org/2000/svg">
<path d="M22.2166 29.3853C18.2641 29.3853 15.0479 26.1691 15.0479 22.2166C15.0479 18.2641 18.2641 15.0479 22.2166 15.0479C26.1691 15.0479 29.3853 18.2641 29.3853 22.2166C29.3853 26.1691 26.1691 29.3853 22.2166 29.3853ZM22.2166 16.9854C19.3362 16.9854 16.9854 19.3362 16.9854 22.2166C16.9854 25.097 19.3362 27.4478 22.2166 27.4478C25.097 27.4478 27.4478 25.097 27.4478 22.2166C27.4478 19.3362 25.097 16.9854 22.2166 16.9854Z" fill="white"/>
<path d="M24.5286 23.2627H19.8916C19.362 23.2627 18.9229 22.8235 18.9229 22.2939C18.9229 21.7644 19.362 21.3252 19.8916 21.3252H24.5286C25.0582 21.3252 25.4974 21.7644 25.4974 22.2939C25.4974 22.8235 25.0711 23.2627 24.5286 23.2627Z" fill="white"/>
<path d="M22.2168 25.6395C21.6872 25.6395 21.248 25.2003 21.248 24.6707V20.0337C21.248 19.5041 21.6872 19.0649 22.2168 19.0649C22.7464 19.0649 23.1855 19.5041 23.1855 20.0337V24.6707C23.1855 25.2003 22.7464 25.6395 22.2168 25.6395Z" fill="white"/>
<path d="M15.5002 27.9644C15.0997 27.9644 14.6993 27.9127 14.3764 27.7965C11.0698 26.6727 1.61475 21.196 1.61475 11.2244C1.61475 6.70352 5.27016 3.03516 9.76516 3.03516C11.9222 3.03516 13.9889 3.90061 15.5002 5.41186C17.0114 3.90061 19.091 3.03516 21.2352 3.03516C25.7302 3.03516 29.3856 6.70352 29.3856 11.2244C29.3856 13.7431 28.7785 16.1585 27.5772 18.419C27.4351 18.6902 27.1639 18.884 26.8539 18.9227C26.531 18.9615 26.2339 18.8581 26.0143 18.6256C25.0068 17.5664 23.6506 16.9723 22.2039 16.9723C19.3235 16.9723 16.9727 19.3231 16.9727 22.2035C16.9727 23.4823 17.4506 24.7223 18.316 25.691C18.5227 25.9235 18.6001 26.2335 18.5355 26.5306C18.471 26.8277 18.2643 27.086 17.9931 27.2152C17.4764 27.4477 17.0114 27.6414 16.5852 27.7835C16.2881 27.9127 15.9006 27.9644 15.5002 27.9644ZM9.76516 4.97266C6.34224 4.97266 3.55225 7.77561 3.55225 11.2244C3.55225 20.0594 12.0385 24.9418 15.0093 25.9622C15.2418 26.0527 15.7456 26.0397 15.9781 25.9622C16.0168 25.9493 16.0556 25.9364 16.0944 25.9235C15.4227 24.8127 15.0481 23.534 15.0481 22.2165C15.0481 18.264 18.2643 15.0477 22.2168 15.0477C23.741 15.0477 25.1877 15.5256 26.4018 16.391C27.0993 14.7377 27.4481 13.0069 27.4481 11.2244C27.4481 7.77561 24.6581 4.97266 21.2352 4.97266C19.2977 4.97266 17.4376 5.90273 16.2751 7.46564C15.9135 7.95648 15.0869 7.95648 14.7252 7.46564C13.5627 5.90273 11.7027 4.97266 9.76516 4.97266Z" fill="white"/>
</svg>
