<svg width="31" height="31" viewBox="0 0 31 31" fill="none" xmlns="http://www.w3.org/2000/svg">
<path d="M22.2166 29.3854C18.2641 29.3854 15.0479 26.1692 15.0479 22.2167C15.0479 18.2642 18.2641 15.0479 22.2166 15.0479C26.1691 15.0479 29.3853 18.2642 29.3853 22.2167C29.3853 26.1692 26.1691 29.3854 22.2166 29.3854ZM22.2166 16.9854C19.3362 16.9854 16.9854 19.3363 16.9854 22.2167C16.9854 25.0971 19.3362 27.4479 22.2166 27.4479C25.097 27.4479 27.4478 25.0971 27.4478 22.2167C27.4478 19.3363 25.097 16.9854 22.2166 16.9854Z" fill="#282689"/>
<path d="M24.5286 23.2629H19.8916C19.362 23.2629 18.9229 22.8238 18.9229 22.2942C18.9229 21.7646 19.362 21.3254 19.8916 21.3254H24.5286C25.0582 21.3254 25.4974 21.7646 25.4974 22.2942C25.4974 22.8238 25.0711 23.2629 24.5286 23.2629Z" fill="#282689"/>
<path d="M22.2169 25.6395C21.6873 25.6395 21.2482 25.2004 21.2482 24.6708V20.0338C21.2482 19.5042 21.6873 19.065 22.2169 19.065C22.7465 19.065 23.1857 19.5042 23.1857 20.0338V24.6708C23.1857 25.2004 22.7465 25.6395 22.2169 25.6395Z" fill="#282689"/>
<path d="M15.5 27.9646C15.0996 27.9646 14.6992 27.913 14.3763 27.7967C11.0696 26.673 1.61462 21.1963 1.61462 11.2246C1.61462 6.70377 5.27004 3.0354 9.76504 3.0354C11.9221 3.0354 13.9888 3.90085 15.5 5.4121C17.0113 3.90085 19.0909 3.0354 21.235 3.0354C25.73 3.0354 29.3855 6.70377 29.3855 11.2246C29.3855 13.7434 28.7783 16.1588 27.5771 18.4192C27.435 18.6904 27.1638 18.8842 26.8538 18.923C26.5308 18.9617 26.2338 18.8583 26.0142 18.6258C25.0067 17.5667 23.6505 16.9725 22.2038 16.9725C19.3234 16.9725 16.9726 19.3234 16.9726 22.2038C16.9726 23.4825 17.4504 24.7225 18.3159 25.6913C18.5225 25.9238 18.6 26.2337 18.5354 26.5308C18.4708 26.8279 18.2642 27.0863 17.9929 27.2154C17.4763 27.4479 17.0113 27.6417 16.5851 27.7838C16.288 27.9129 15.9005 27.9646 15.5 27.9646ZM9.76504 4.9729C6.34212 4.9729 3.55212 7.77585 3.55212 11.2246C3.55212 20.0596 12.0384 24.9421 15.0092 25.9625C15.2417 26.0529 15.7455 26.04 15.978 25.9625C16.0167 25.9496 16.0555 25.9367 16.0942 25.9238C15.4226 24.8129 15.048 23.5342 15.048 22.2167C15.048 18.2642 18.2642 15.048 22.2167 15.048C23.7409 15.048 25.1875 15.5259 26.4017 16.3913C27.0992 14.7379 27.448 13.0071 27.448 11.2246C27.448 7.77585 24.658 4.9729 21.235 4.9729C19.2975 4.9729 17.4375 5.90297 16.275 7.46589C15.9133 7.95672 15.0867 7.95672 14.7251 7.46589C13.5626 5.90297 11.7025 4.9729 9.76504 4.9729Z" fill="#282689"/>
</svg>
