<svg width="71" height="71" viewBox="0 0 71 71" fill="none" xmlns="http://www.w3.org/2000/svg">
<circle cx="35.5" cy="35.5" r="35.5" fill="#F4F7FE"/>
<path d="M42.9141 49.3854H29.8554C29.442 49.3854 29.0804 49.1271 28.9383 48.7525C28.7962 48.365 28.9125 47.9387 29.2225 47.6804C29.5325 47.4221 29.8166 47.0862 30.0233 46.7246C30.4366 46.0658 30.6433 45.3167 30.6433 44.5546C30.6433 42.2425 28.7575 40.3567 26.4454 40.3567C25.4895 40.3567 24.5854 40.6796 23.8233 41.2866C23.5391 41.5191 23.1387 41.5579 22.8029 41.4029C22.467 41.2479 22.2604 40.8992 22.2604 40.5246V34.88C22.2604 31.6638 24.8695 29.0546 28.0858 29.0546H42.9141C46.1304 29.0546 48.7395 31.6638 48.7395 34.88V36.74C48.7395 37.2696 48.3004 37.7088 47.7708 37.7088H45.1616C44.7095 37.7088 44.2962 37.8767 43.9991 38.1867L43.9862 38.1996C43.6245 38.5484 43.4566 39.0262 43.4954 39.5171C43.5729 40.3696 44.3866 41.0541 45.3166 41.0541H47.7708C48.3004 41.0541 48.7395 41.4933 48.7395 42.0229V43.56C48.7395 46.7762 46.1304 49.3854 42.9141 49.3854ZM31.8574 47.4479H42.9141C45.0583 47.4479 46.802 45.7042 46.802 43.56V42.9916H45.3166C43.3662 42.9916 41.7129 41.545 41.5579 39.685C41.4545 38.6258 41.842 37.5796 42.617 36.8175C43.2887 36.1329 44.1929 35.7583 45.1616 35.7583H46.802V34.8671C46.802 32.7229 45.0583 30.9792 42.9141 30.9792H28.0858C25.9416 30.9792 24.1979 32.7229 24.1979 34.8671V38.8454C24.9212 38.5613 25.6833 38.4062 26.4583 38.4062C29.8425 38.4062 32.5937 41.1575 32.5937 44.5417C32.5937 45.5621 32.3354 46.5696 31.8574 47.4479Z" fill="#282689"/>
<path d="M23.2291 36.9984C22.6995 36.9984 22.2604 36.5592 22.2604 36.0296V30.1268C22.2604 28.2022 23.4745 26.4584 25.27 25.7738L35.5258 21.8988C36.585 21.4984 37.7604 21.6405 38.6775 22.2863C39.6075 22.9322 40.15 23.9784 40.15 25.1022V30.0105C40.15 30.5401 39.7108 30.9792 39.1812 30.9792C38.6516 30.9792 38.2125 30.5401 38.2125 30.0105V25.1022C38.2125 24.6113 37.98 24.1592 37.5666 23.8751C37.1533 23.5909 36.6624 23.5263 36.1975 23.7071L25.9416 27.5821C24.8954 27.9825 24.185 29.003 24.185 30.1268V36.0296C24.1979 36.5721 23.7587 36.9984 23.2291 36.9984Z" fill="#282689"/>
<path d="M45.3167 42.9916C43.3663 42.9916 41.7129 41.5449 41.5579 39.6849C41.4546 38.6128 41.8421 37.5666 42.6171 36.8045C43.2758 36.1329 44.18 35.7583 45.1488 35.7583H47.8354C49.1142 35.797 50.0959 36.8045 50.0959 38.0445V40.7054C50.0959 41.9454 49.1142 42.9528 47.8742 42.9916H45.3167ZM47.8096 37.6958H45.1617C44.7096 37.6958 44.2963 37.8637 43.9992 38.1737C43.6246 38.5353 43.4438 39.0262 43.4954 39.517C43.5729 40.3695 44.3867 41.0541 45.3167 41.0541H47.8484C48.0163 41.0541 48.1713 40.8991 48.1713 40.7054V38.0445C48.1713 37.8507 48.0163 37.7087 47.8096 37.6958Z" fill="#282689"/>
<path d="M38.0833 36.4688H29.0416C28.512 36.4688 28.0729 36.0296 28.0729 35.5C28.0729 34.9704 28.512 34.5312 29.0416 34.5312H38.0833C38.6129 34.5312 39.052 34.9704 39.052 35.5C39.052 36.0296 38.6129 36.4688 38.0833 36.4688Z" fill="#282689"/>
<path d="M26.4583 50.6771C24.3141 50.6771 22.2991 49.5404 21.2141 47.6933C20.6329 46.7633 20.3229 45.6654 20.3229 44.5417C20.3229 42.6558 21.1625 40.9121 22.622 39.7496C23.707 38.8841 25.0762 38.4062 26.4583 38.4062C29.8425 38.4062 32.5937 41.1575 32.5937 44.5417C32.5937 45.6654 32.2837 46.7633 31.7025 47.7063C31.3925 48.2488 30.9662 48.7396 30.4754 49.1529C29.4033 50.1346 27.9695 50.6771 26.4583 50.6771ZM26.4583 40.3437C25.5025 40.3437 24.5983 40.6666 23.8362 41.2737C22.8416 42.0616 22.2604 43.2629 22.2604 44.5417C22.2604 45.3037 22.467 46.0529 22.8675 46.6987C23.6295 47.9904 24.9729 48.7396 26.4583 48.7396C27.4787 48.7396 28.4604 48.365 29.2095 47.6933C29.5454 47.4092 29.8295 47.0733 30.0362 46.7117C30.4495 46.0529 30.6562 45.3037 30.6562 44.5417C30.6562 42.2296 28.7704 40.3437 26.4583 40.3437Z" fill="#282689"/>
<path d="M25.7219 46.7892C25.4765 46.7892 25.2311 46.6989 25.0373 46.5051L23.7586 45.2264C23.384 44.8518 23.384 44.2317 23.7586 43.8571C24.1332 43.4825 24.7532 43.4825 25.1278 43.8571L25.7478 44.4772L27.8144 42.5655C28.2019 42.2038 28.8219 42.2297 29.1836 42.6172C29.5453 43.0047 29.5194 43.6247 29.1319 43.9863L26.3807 46.5309C26.1869 46.6988 25.9544 46.7892 25.7219 46.7892Z" fill="#282689"/>
</svg>
