<svg width="31" height="31" viewBox="0 0 31 31" fill="none" xmlns="http://www.w3.org/2000/svg">
<path d="M16.7916 12.5937H9.04163C8.51204 12.5937 8.07288 12.1546 8.07288 11.625C8.07288 11.0954 8.51204 10.6562 9.04163 10.6562H16.7916C17.3212 10.6562 17.7604 11.0954 17.7604 11.625C17.7604 12.1546 17.3212 12.5937 16.7916 12.5937Z" fill="#282689"/>
<path d="M24.5931 19.1166C22.6427 19.1166 20.9894 17.6699 20.8344 15.8099C20.7311 14.7378 21.1186 13.6916 21.8936 12.9295C22.5394 12.2579 23.4565 11.8833 24.4252 11.8833H27.1248C28.4036 11.922 29.3853 12.9295 29.3853 14.1695V16.8304C29.3853 18.0704 28.4036 19.0778 27.1636 19.1166H24.5931ZM27.0861 13.8208H24.4382C23.9861 13.8208 23.5728 13.9887 23.2757 14.2987C22.9011 14.6603 22.7203 15.1512 22.7719 15.642C22.8365 16.4945 23.6631 17.1791 24.5931 17.1791H27.1248C27.2928 17.1791 27.4478 17.0241 27.4478 16.8304V14.1695C27.4478 13.9757 27.2927 13.8337 27.0861 13.8208Z" fill="#282689"/>
<path d="M20.6667 27.4479H9.04171C4.59837 27.4479 1.61462 24.4642 1.61462 20.0208V10.9792C1.61462 7.00084 4.06876 4.12044 7.87918 3.64252C8.22793 3.59085 8.62837 3.55209 9.04171 3.55209H20.6667C20.9767 3.55209 21.3771 3.56501 21.7904 3.62959C25.6009 4.06876 28.0938 6.96209 28.0938 10.9792V12.8521C28.0938 13.3817 27.6546 13.8209 27.125 13.8209H24.4383C23.9863 13.8209 23.573 13.9888 23.2759 14.2988L23.263 14.3117C22.9013 14.6605 22.7334 15.1383 22.7721 15.6291C22.8367 16.4816 23.6633 17.1662 24.5933 17.1662H27.125C27.6546 17.1662 28.0938 17.6054 28.0938 18.135V20.0079C28.0938 24.4642 25.11 27.4479 20.6667 27.4479ZM9.04171 5.48959C8.73171 5.48959 8.43461 5.51541 8.13752 5.55416C5.29586 5.91583 3.55212 7.98251 3.55212 10.9792V20.0208C3.55212 23.3533 5.70921 25.5104 9.04171 25.5104H20.6667C23.9992 25.5104 26.1563 23.3533 26.1563 20.0208V19.1167H24.5933C22.6429 19.1167 20.9896 17.67 20.8346 15.81C20.7313 14.7508 21.1188 13.6917 21.8938 12.9425C22.5655 12.258 23.4696 11.8834 24.4383 11.8834H26.1563V10.9792C26.1563 7.95668 24.3867 5.87707 21.5192 5.54123C21.2092 5.48957 20.938 5.48959 20.6667 5.48959H9.04171V5.48959Z" fill="#282689"/>
</svg>
