<svg width="22" height="24" viewBox="0 0 22 24" fill="none" xmlns="http://www.w3.org/2000/svg">
<path d="M10.9722 8C11.978 8 12.8009 7.1 12.8009 6C12.8009 4.9 11.978 4 10.9722 4C9.96646 4 9.14355 4.9 9.14355 6C9.14355 7.1 9.96646 8 10.9722 8ZM10.9722 10C9.96646 10 9.14355 10.9 9.14355 12C9.14355 13.1 9.96646 14 10.9722 14C11.978 14 12.8009 13.1 12.8009 12C12.8009 10.9 11.978 10 10.9722 10ZM10.9722 16C9.96646 16 9.14355 16.9 9.14355 18C9.14355 19.1 9.96646 20 10.9722 20C11.978 20 12.8009 19.1 12.8009 18C12.8009 16.9 11.978 16 10.9722 16Z" fill="#C5C7CD"/>
</svg>
