<svg width="24" height="25" viewBox="0 0 24 25" fill="none" xmlns="http://www.w3.org/2000/svg">
<path d="M12 8.73242C13.1 8.73242 14 7.83242 14 6.73242C14 5.63242 13.1 4.73242 12 4.73242C10.9 4.73242 10 5.63242 10 6.73242C10 7.83242 10.9 8.73242 12 8.73242ZM12 10.7324C10.9 10.7324 10 11.6324 10 12.7324C10 13.8324 10.9 14.7324 12 14.7324C13.1 14.7324 14 13.8324 14 12.7324C14 11.6324 13.1 10.7324 12 10.7324ZM12 16.7324C10.9 16.7324 10 17.6324 10 18.7324C10 19.8324 10.9 20.7324 12 20.7324C13.1 20.7324 14 19.8324 14 18.7324C14 17.6324 13.1 16.7324 12 16.7324Z" fill="#282689"/>
</svg>
