<svg width="73" height="73" viewBox="0 0 73 73" fill="none" xmlns="http://www.w3.org/2000/svg">
<path fill-rule="evenodd" clip-rule="evenodd" d="M0.5 36.5C0.5 26.9522 4.29285 17.7955 11.0442 11.0442C17.7955 4.29285 26.9522 0.5 36.5 0.5C46.0478 0.5 55.2045 4.29285 61.9558 11.0442C68.7072 17.7955 72.5 26.9522 72.5 36.5C72.5 46.0478 68.7072 55.2045 61.9558 61.9558C55.2045 68.7072 46.0478 72.5 36.5 72.5C26.9522 72.5 17.7955 68.7072 11.0442 61.9558C4.29285 55.2045 0.5 46.0478 0.5 36.5ZM34.4456 51.908L55.172 25.9976L51.428 23.0024L33.7544 45.0872L21.236 34.6568L18.164 38.3432L34.4456 51.9128V51.908Z" fill="#37E030"/>
</svg>
