<svg width="17" height="19" viewBox="0 0 17 19" fill="none" xmlns="http://www.w3.org/2000/svg">
<g clip-path="url(#clip0_109_73)">
<path fill-rule="evenodd" clip-rule="evenodd" d="M5.90038 4.57143C5.90038 3.96522 6.14119 3.38384 6.56985 2.95518C6.9985 2.52653 7.57988 2.28571 8.18609 2.28571C8.7923 2.28571 9.37368 2.52653 9.80234 2.95518C10.231 3.38384 10.4718 3.96522 10.4718 4.57143V6.92343C9.71067 6.87999 8.94847 6.85788 8.18609 6.85714C7.39181 6.85714 6.62038 6.88229 5.90038 6.92343V4.57143ZM3.61467 7.10857V4.57143C3.61467 3.35901 4.0963 2.19625 4.95361 1.33894C5.81091 0.481631 6.97368 0 8.18609 0C9.39851 0 10.5613 0.481631 11.4186 1.33894C12.2759 2.19625 12.7575 3.35901 12.7575 4.57143V7.10857C13.2595 7.16188 13.7605 7.2236 14.2604 7.29371C15.393 7.45143 16.1861 8.42629 16.1861 9.52686V15.1977C16.1861 16.1531 15.5815 17.0537 14.5975 17.3383C13.3907 17.6891 10.937 18.2857 8.18609 18.2857C5.43524 18.2857 2.98267 17.6891 1.77467 17.3383C1.31339 17.2023 0.908896 16.9199 0.622306 16.5337C0.335716 16.1476 0.182601 15.6786 0.186094 15.1977V9.52686C0.186094 8.42629 0.978094 7.45257 2.11181 7.29371C2.51181 7.23657 3.02152 7.17257 3.61467 7.10971V7.10857ZM2.47181 9.552V15.1623C3.59524 15.4846 5.78152 16.0011 8.18609 16.0011C10.5907 16.0011 12.777 15.4846 13.9004 15.1623V9.55086C12.0068 9.28779 10.0978 9.15149 8.18609 9.14286C5.81467 9.14286 3.65924 9.38629 2.47181 9.55086V9.552ZM8.18609 10.2857C8.4892 10.2857 8.77989 10.4061 8.99422 10.6205C9.20854 10.8348 9.32895 11.1255 9.32895 11.4286V13.7143C9.32895 14.0174 9.20854 14.3081 8.99422 14.5224C8.77989 14.7367 8.4892 14.8571 8.18609 14.8571C7.88299 14.8571 7.5923 14.7367 7.37797 14.5224C7.16364 14.3081 7.04324 14.0174 7.04324 13.7143V11.4286C7.04324 11.1255 7.16364 10.8348 7.37797 10.6205C7.5923 10.4061 7.88299 10.2857 8.18609 10.2857Z" fill="#7C828D"/>
</g>
<defs>
<clipPath id="clip0_109_73">
<rect width="16" height="18.2857" fill="white" transform="translate(0.186035)"/>
</clipPath>
</defs>
</svg>
