<svg width="18" height="18" viewBox="0 0 18 18" fill="none" xmlns="http://www.w3.org/2000/svg">
<path d="M2.94747 12.4725C2.80497 12.4725 2.66247 12.42 2.54997 12.3075C2.33247 12.09 2.33247 11.73 2.54997 11.5125L11.5125 2.55C11.73 2.3325 12.09 2.3325 12.3075 2.55C12.525 2.7675 12.525 3.1275 12.3075 3.345L3.34497 12.315C3.23997 12.42 3.08997 12.4725 2.94747 12.4725Z" fill="white"/>
<path d="M8.32503 14.2725C8.18253 14.2725 8.04003 14.22 7.92753 14.1075C7.71003 13.89 7.71003 13.53 7.92753 13.3125L8.82753 12.4125C9.04503 12.195 9.40503 12.195 9.62253 12.4125C9.84003 12.63 9.84003 12.99 9.62253 13.2075L8.72253 14.1075C8.61753 14.2125 8.47503 14.2725 8.32503 14.2725Z" fill="white"/>
<path d="M10.3425 12.255C10.2 12.255 10.0575 12.2025 9.94499 12.09C9.72749 11.8725 9.72749 11.5125 9.94499 11.295L11.7375 9.5025C11.955 9.285 12.315 9.285 12.5325 9.5025C12.75 9.72 12.75 10.08 12.5325 10.2975L10.74 12.09C10.635 12.195 10.485 12.255 10.3425 12.255Z" fill="white"/>
<path d="M8.32506 17.0625C7.59006 17.0625 6.85506 16.6125 5.96256 15.72L2.28006 12.0375C0.487558 10.245 0.495058 9.09 2.30256 7.2825L7.28256 2.3025C9.09006 0.494997 10.2451 0.487497 12.0376 2.28L15.7201 5.9625C17.5126 7.755 17.5051 8.91 15.6976 10.7175L10.7176 15.6975C9.81006 16.605 9.06756 17.0625 8.32506 17.0625ZM9.67506 2.0625C9.28506 2.0625 8.79006 2.385 8.07756 3.0975L3.09756 8.0775C2.38506 8.79 2.06256 9.285 2.06256 9.6675C2.06256 10.0575 2.36256 10.53 3.07506 11.2425L6.75756 14.925C7.47006 15.6375 7.93506 15.9375 8.32506 15.9375C8.32506 15.9375 8.32506 15.9375 8.33256 15.9375C8.72256 15.9375 9.21006 15.615 9.92256 14.9025L14.9026 9.9225C15.6151 9.21 15.9376 8.715 15.9376 8.3325C15.9376 7.9425 15.6376 7.47 14.9251 6.7575L11.2426 3.075C10.5376 2.3625 10.0651 2.0625 9.67506 2.0625Z" fill="white"/>
<path d="M16.5 17.0625H1.5C1.1925 17.0625 0.9375 16.8075 0.9375 16.5C0.9375 16.1925 1.1925 15.9375 1.5 15.9375H16.5C16.8075 15.9375 17.0625 16.1925 17.0625 16.5C17.0625 16.8075 16.8075 17.0625 16.5 17.0625Z" fill="white"/>
</svg>
