<svg width="31" height="31" viewBox="0 0 31 31" fill="none" xmlns="http://www.w3.org/2000/svg">
<path d="M5.07636 21.4805C4.83094 21.4805 4.58553 21.3901 4.39178 21.1964C4.01719 20.8218 4.01719 20.2018 4.39178 19.8272L19.8272 4.39178C20.2018 4.01719 20.8218 4.01719 21.1964 4.39178C21.5709 4.76636 21.5709 5.38636 21.1964 5.76094L5.76094 21.2093C5.58011 21.3901 5.32178 21.4805 5.07636 21.4805Z" fill="white"/>
<path d="M14.3376 24.5805C14.0922 24.5805 13.8468 24.49 13.653 24.2963C13.2784 23.9217 13.2784 23.3017 13.653 22.9271L15.203 21.3771C15.5776 21.0025 16.1976 21.0025 16.5722 21.3771C16.9468 21.7517 16.9468 22.3717 16.5722 22.7463L15.0222 24.2963C14.8413 24.4771 14.5959 24.5805 14.3376 24.5805Z" fill="white"/>
<path d="M17.8122 21.1058C17.5668 21.1058 17.3214 21.0154 17.1276 20.8217C16.753 20.4471 16.753 19.8271 17.1276 19.4525L20.2147 16.3654C20.5893 15.9908 21.2093 15.9908 21.5839 16.3654C21.9584 16.74 21.9584 17.36 21.5839 17.7346L18.4968 20.8217C18.3159 21.0025 18.0576 21.1058 17.8122 21.1058Z" fill="white"/>
<path d="M14.3376 29.3855C13.0718 29.3855 11.8059 28.6105 10.2688 27.0734L3.92676 20.7313C0.839676 17.6443 0.852592 15.6551 3.96551 12.5422L12.5422 3.96551C15.6551 0.852592 17.6443 0.839676 20.7313 3.92676L27.0734 10.2688C30.1605 13.3559 30.1476 15.3451 27.0347 18.458L18.458 27.0347C16.8951 28.5976 15.6163 29.3855 14.3376 29.3855ZM16.6626 3.55218C15.9909 3.55218 15.1384 4.10759 13.9113 5.33468L5.33468 13.9113C4.10759 15.1384 3.55218 15.9909 3.55218 16.6497C3.55218 17.3213 4.06884 18.1351 5.29593 19.3622L11.638 25.7043C12.8651 26.9313 13.6659 27.448 14.3376 27.448C14.3376 27.448 14.3376 27.448 14.3505 27.448C15.0222 27.448 15.8618 26.8926 17.0888 25.6655L25.6655 17.0888C26.8926 15.8618 27.448 15.0093 27.448 14.3505C27.448 13.6788 26.9313 12.8651 25.7043 11.638L19.3622 5.29593C18.148 4.06884 17.3343 3.55218 16.6626 3.55218Z" fill="white"/>
<path d="M28.4168 29.3853H2.5835C2.05391 29.3853 1.61475 28.9461 1.61475 28.4165C1.61475 27.8869 2.05391 27.4478 2.5835 27.4478H28.4168C28.9464 27.4478 29.3856 27.8869 29.3856 28.4165C29.3856 28.9461 28.9464 29.3853 28.4168 29.3853Z" fill="white"/>
</svg>
