<svg width="24" height="24" viewBox="0 0 24 24" fill="none" xmlns="http://www.w3.org/2000/svg">
<path d="M5.9999 5.4001C5.9999 4.92271 6.18954 4.46487 6.52711 4.12731C6.86468 3.78974 7.32251 3.6001 7.7999 3.6001H16.1999C16.6773 3.6001 17.1351 3.78974 17.4727 4.12731C17.8103 4.46487 17.9999 4.92271 17.9999 5.4001V6.0001H18.5999C19.3955 6.0001 20.1586 6.31617 20.7212 6.87878C21.2838 7.44139 21.5999 8.20445 21.5999 9.0001V15.0001C21.5999 15.4775 21.4103 15.9353 21.0727 16.2729C20.7351 16.6105 20.2773 16.8001 19.7999 16.8001H17.9999V18.6001C17.9999 19.0775 17.8103 19.5353 17.4727 19.8729C17.1351 20.2105 16.6773 20.4001 16.1999 20.4001H7.7999C7.32251 20.4001 6.86468 20.2105 6.52711 19.8729C6.18954 19.5353 5.9999 19.0775 5.9999 18.6001V16.8001H4.1999C3.72251 16.8001 3.26468 16.6105 2.92711 16.2729C2.58954 15.9353 2.3999 15.4775 2.3999 15.0001V9.0001C2.3999 8.20445 2.71597 7.44139 3.27858 6.87878C3.84119 6.31617 4.60425 6.0001 5.3999 6.0001H5.9999V5.4001ZM7.1999 6.0001H16.7999V5.4001C16.7999 5.24097 16.7367 5.08836 16.6242 4.97583C16.5116 4.86331 16.359 4.8001 16.1999 4.8001H7.7999C7.64077 4.8001 7.48816 4.86331 7.37564 4.97583C7.26312 5.08836 7.1999 5.24097 7.1999 5.4001V6.0001ZM5.9999 15.6001V13.8001C5.9999 13.3227 6.18954 12.8649 6.52711 12.5273C6.86468 12.1897 7.32251 12.0001 7.7999 12.0001H16.1999C16.6773 12.0001 17.1351 12.1897 17.4727 12.5273C17.8103 12.8649 17.9999 13.3227 17.9999 13.8001V15.6001H19.7999C19.959 15.6001 20.1116 15.5369 20.2242 15.4244C20.3367 15.3118 20.3999 15.1592 20.3999 15.0001V9.0001C20.3999 8.52271 20.2103 8.06487 19.8727 7.72731C19.5351 7.38974 19.0773 7.2001 18.5999 7.2001H5.3999C4.92251 7.2001 4.46468 7.38974 4.12711 7.72731C3.78954 8.06487 3.5999 8.52271 3.5999 9.0001V15.0001C3.5999 15.1592 3.66312 15.3118 3.77564 15.4244C3.88816 15.5369 4.04077 15.6001 4.1999 15.6001H5.9999ZM7.7999 13.2001C7.64077 13.2001 7.48816 13.2633 7.37564 13.3758C7.26312 13.4884 7.1999 13.641 7.1999 13.8001V18.6001C7.1999 18.7592 7.26312 18.9118 7.37564 19.0244C7.48816 19.1369 7.64077 19.2001 7.7999 19.2001H16.1999C16.359 19.2001 16.5116 19.1369 16.6242 19.0244C16.7367 18.9118 16.7999 18.7592 16.7999 18.6001V13.8001C16.7999 13.641 16.7367 13.4884 16.6242 13.3758C16.5116 13.2633 16.359 13.2001 16.1999 13.2001H7.7999Z" fill="#282689"/>
</svg>
