<svg width="18" height="18" viewBox="0 0 18 18" fill="none" xmlns="http://www.w3.org/2000/svg">
<path d="M9.01502 15.3975C7.26752 15.3975 5.52002 15.12 3.86252 14.565C3.23252 14.3475 2.75252 13.905 2.54252 13.3275C2.32502 12.75 2.40002 12.1125 2.74502 11.5425L3.60752 10.11C3.78752 9.81 3.95252 9.21 3.95252 8.8575V6.69C3.95252 3.9 6.22502 1.6275 9.01502 1.6275C11.805 1.6275 14.0775 3.9 14.0775 6.69V8.8575C14.0775 9.2025 14.2425 9.81 14.4225 10.1175L15.2775 11.5425C15.6 12.0825 15.66 12.735 15.4425 13.3275C15.225 13.92 14.7525 14.37 14.16 14.565C12.51 15.12 10.7625 15.3975 9.01502 15.3975ZM9.01502 2.7525C6.84752 2.7525 5.07752 4.515 5.07752 6.69V8.8575C5.07752 9.405 4.85252 10.215 4.57502 10.6875L3.71252 12.12C3.54752 12.3975 3.50252 12.69 3.60002 12.9375C3.69002 13.1925 3.91502 13.3875 4.22252 13.4925C7.35752 14.5425 10.68 14.5425 13.815 13.4925C14.085 13.4025 14.295 13.2 14.3925 12.93C14.49 12.66 14.4675 12.3675 14.3175 12.12L13.455 10.6875C13.17 10.2 12.9525 9.3975 12.9525 8.85V6.69C12.9525 4.515 11.19 2.7525 9.01502 2.7525Z" fill="white"/>
<path d="M10.41 2.95499C10.3575 2.95499 10.305 2.94749 10.2525 2.93249C10.035 2.87249 9.82496 2.82749 9.62246 2.79749C8.98496 2.71499 8.36996 2.75999 7.79246 2.93249C7.58246 2.99999 7.35746 2.93249 7.21496 2.77499C7.07246 2.61749 7.02746 2.39249 7.10996 2.18999C7.41746 1.40249 8.16746 0.884995 9.02246 0.884995C9.87746 0.884995 10.6275 1.39499 10.935 2.18999C11.01 2.39249 10.9725 2.61749 10.83 2.77499C10.7175 2.89499 10.56 2.95499 10.41 2.95499Z" fill="white"/>
<path d="M9.01501 17.1075C8.27251 17.1075 7.55251 16.8075 7.02751 16.2825C6.50251 15.7575 6.20251 15.0375 6.20251 14.295H7.32751C7.32751 14.7375 7.50751 15.1725 7.82251 15.4875C8.13751 15.8025 8.57251 15.9825 9.01501 15.9825C9.94501 15.9825 10.7025 15.225 10.7025 14.295H11.8275C11.8275 15.8475 10.5675 17.1075 9.01501 17.1075Z" fill="white"/>
</svg>
