<svg width="16" height="16" viewBox="0 0 16 16" fill="none" xmlns="http://www.w3.org/2000/svg">
<path d="M8.00683 11.3331C7.44017 11.3331 6.86683 11.1865 6.42017 10.8998L2.40683 8.27979C1.66017 7.79312 1.2135 6.97312 1.2135 6.07979C1.2135 5.18645 1.66017 4.36645 2.40683 3.87979L6.42683 1.26645C7.32017 0.686453 8.7135 0.686453 9.60017 1.27312L13.5935 3.89312C14.3335 4.37979 14.7802 5.19979 14.7802 6.08645C14.7802 6.97312 14.3335 7.79312 13.5935 8.27979L9.60017 10.8998C9.1535 11.1931 8.58017 11.3331 8.00683 11.3331ZM8.00683 1.83312C7.62683 1.83312 7.24683 1.91979 6.9735 2.10645L2.96017 4.71979C2.4935 5.02645 2.22017 5.51979 2.22017 6.07979C2.22017 6.63979 2.48683 7.13312 2.96017 7.43979L6.9735 10.0598C7.52683 10.4198 8.50017 10.4198 9.0535 10.0598L13.0468 7.43979C13.5135 7.13312 13.7802 6.63979 13.7802 6.07979C13.7802 5.51979 13.5135 5.02645 13.0468 4.71979L9.0535 2.09979C8.7735 1.92645 8.3935 1.83312 8.00683 1.83312Z" fill="white"/>
<path d="M8.00008 15.1665C7.70675 15.1665 7.40675 15.1265 7.16675 15.0465L5.04008 14.3398C4.03341 14.0065 3.24008 12.9065 3.24675 11.8465L3.25341 8.71979C3.25341 8.44645 3.48008 8.21979 3.75341 8.21979C4.02675 8.21979 4.25341 8.44645 4.25341 8.71979L4.24675 11.8465C4.24675 12.4731 4.76675 13.1931 5.36008 13.3931L7.48675 14.0998C7.75341 14.1865 8.24675 14.1865 8.51341 14.0998L10.6401 13.3931C11.2334 13.1931 11.7534 12.4731 11.7534 11.8531V8.75979C11.7534 8.48645 11.9801 8.25979 12.2534 8.25979C12.5267 8.25979 12.7534 8.48645 12.7534 8.75979V11.8531C12.7534 12.9131 11.9667 14.0065 10.9601 14.3465L8.83341 15.0531C8.59341 15.1265 8.29341 15.1665 8.00008 15.1665Z" fill="white"/>
<path d="M14.2668 10.4998C13.9935 10.4998 13.7668 10.2731 13.7668 9.99979V5.99979C13.7668 5.72645 13.9935 5.49979 14.2668 5.49979C14.5402 5.49979 14.7668 5.72645 14.7668 5.99979V9.99979C14.7668 10.2731 14.5402 10.4998 14.2668 10.4998Z" fill="white"/>
</svg>
