<svg width="20" height="20" viewBox="0 0 20 20" fill="none" xmlns="http://www.w3.org/2000/svg">
<path fill-rule="evenodd" clip-rule="evenodd" d="M2.5 8.42105C2.5 11.6911 5.15094 14.3421 8.42105 14.3421C9.78811 14.3421 11.047 13.8788 12.0492 13.1007C12.087 13.1805 12.1388 13.2553 12.2049 13.3214L16.1523 17.2688C16.4606 17.5771 16.9605 17.5771 17.2688 17.2688C17.5771 16.9605 17.5771 16.4606 17.2688 16.1523L13.3214 12.2049C13.2553 12.1388 13.1805 12.087 13.1007 12.0492C13.8788 11.047 14.3421 9.78811 14.3421 8.42105C14.3421 5.15094 11.6911 2.5 8.42105 2.5C5.15094 2.5 2.5 5.15094 2.5 8.42105ZM4.07895 8.42105C4.07895 6.02297 6.02297 4.07895 8.42105 4.07895C10.8192 4.07895 12.7632 6.02297 12.7632 8.42105C12.7632 10.8192 10.8192 12.7632 8.42105 12.7632C6.02297 12.7632 4.07895 10.8192 4.07895 8.42105Z" fill="#7C828D"/>
</svg>
