<svg width="18" height="18" viewBox="0 0 18 18" fill="none" xmlns="http://www.w3.org/2000/svg">
<path d="M9.00012 11.8123C7.44762 11.8123 6.18762 10.5523 6.18762 8.99979C6.18762 7.44729 7.44762 6.18729 9.00012 6.18729C10.5526 6.18729 11.8126 7.44729 11.8126 8.99979C11.8126 10.5523 10.5526 11.8123 9.00012 11.8123ZM9.00012 7.31229C8.07012 7.31229 7.31262 8.06979 7.31262 8.99979C7.31262 9.92979 8.07012 10.6873 9.00012 10.6873C9.93012 10.6873 10.6876 9.92979 10.6876 8.99979C10.6876 8.06979 9.93012 7.31229 9.00012 7.31229Z" fill="white"/>
<path d="M11.4076 16.6423C11.2501 16.6423 11.0926 16.6198 10.9351 16.5823C10.4701 16.4548 10.0801 16.1623 9.83262 15.7498L9.74262 15.5998C9.30012 14.8348 8.69262 14.8348 8.25012 15.5998L8.16762 15.7423C7.92012 16.1623 7.53012 16.4623 7.06512 16.5823C6.59262 16.7098 6.10512 16.6423 5.69262 16.3948L4.40262 15.6523C3.94512 15.3898 3.61512 14.9623 3.47262 14.4448C3.33762 13.9273 3.40512 13.3948 3.66762 12.9373C3.88512 12.5548 3.94512 12.2098 3.81762 11.9923C3.69012 11.7748 3.36762 11.6473 2.92512 11.6473C1.83012 11.6473 0.937622 10.7548 0.937622 9.65979V8.33979C0.937622 7.24479 1.83012 6.35229 2.92512 6.35229C3.36762 6.35229 3.69012 6.22479 3.81762 6.00729C3.94512 5.78979 3.89262 5.44479 3.66762 5.06229C3.40512 4.60479 3.33762 4.06479 3.47262 3.55479C3.60762 3.03729 3.93762 2.60979 4.40262 2.34729L5.70012 1.60479C6.54762 1.10229 7.66512 1.39479 8.17512 2.25729L8.26512 2.40729C8.70762 3.17229 9.31512 3.17229 9.75762 2.40729L9.84012 2.26479C10.3501 1.39479 11.4676 1.10229 12.3226 1.61229L13.6126 2.35479C14.0701 2.61729 14.4001 3.04479 14.5426 3.56229C14.6776 4.07979 14.6101 4.61229 14.3476 5.06979C14.1301 5.45229 14.0701 5.79729 14.1976 6.01479C14.3251 6.23229 14.6476 6.35979 15.0901 6.35979C16.1851 6.35979 17.0776 7.25229 17.0776 8.34729V9.66729C17.0776 10.7623 16.1851 11.6548 15.0901 11.6548C14.6476 11.6548 14.3251 11.7823 14.1976 11.9998C14.0701 12.2173 14.1226 12.5623 14.3476 12.9448C14.6101 13.4023 14.6851 13.9423 14.5426 14.4523C14.4076 14.9698 14.0776 15.3973 13.6126 15.6598L12.3151 16.4023C12.0301 16.5598 11.7226 16.6423 11.4076 16.6423ZM9.00012 13.8673C9.66762 13.8673 10.2901 14.2873 10.7176 15.0298L10.8001 15.1723C10.8901 15.3298 11.0401 15.4423 11.2201 15.4873C11.4001 15.5323 11.5801 15.5098 11.7301 15.4198L13.0276 14.6698C13.2226 14.5573 13.3726 14.3698 13.4326 14.1448C13.4926 13.9198 13.4626 13.6873 13.3501 13.4923C12.9226 12.7573 12.8701 11.9998 13.2001 11.4223C13.5301 10.8448 14.2126 10.5148 15.0676 10.5148C15.5476 10.5148 15.9301 10.1323 15.9301 9.65229V8.33229C15.9301 7.85979 15.5476 7.46979 15.0676 7.46979C14.2126 7.46979 13.5301 7.13979 13.2001 6.56229C12.8701 5.98479 12.9226 5.22729 13.3501 4.49229C13.4626 4.29729 13.4926 4.06479 13.4326 3.83979C13.3726 3.61479 13.2301 3.43479 13.0351 3.31479L11.7376 2.57229C11.4151 2.37729 10.9876 2.48979 10.7926 2.81979L10.7101 2.96229C10.2826 3.70479 9.66012 4.12479 8.99262 4.12479C8.32512 4.12479 7.70262 3.70479 7.27512 2.96229L7.19262 2.81229C7.00512 2.49729 6.58512 2.38479 6.26262 2.57229L4.96512 3.32229C4.77012 3.43479 4.62012 3.62229 4.56012 3.84729C4.50012 4.07229 4.53012 4.30479 4.64262 4.49979C5.07012 5.23479 5.12262 5.99229 4.79262 6.56979C4.46262 7.14729 3.78012 7.47729 2.92512 7.47729C2.44512 7.47729 2.06262 7.85979 2.06262 8.33979V9.65979C2.06262 10.1323 2.44512 10.5223 2.92512 10.5223C3.78012 10.5223 4.46262 10.8523 4.79262 11.4298C5.12262 12.0073 5.07012 12.7648 4.64262 13.4998C4.53012 13.6948 4.50012 13.9273 4.56012 14.1523C4.62012 14.3773 4.76262 14.5573 4.95762 14.6773L6.25512 15.4198C6.41262 15.5173 6.60012 15.5398 6.77262 15.4948C6.95262 15.4498 7.10262 15.3298 7.20012 15.1723L7.28262 15.0298C7.71012 14.2948 8.33262 13.8673 9.00012 13.8673Z" fill="white"/>
</svg>
