<svg width="9" height="6" viewBox="0 0 9 6" fill="none" xmlns="http://www.w3.org/2000/svg">
<path d="M4.14751 5.34419C4.18063 5.3923 4.22496 5.43163 4.27666 5.45881C4.32837 5.48599 4.38591 5.50019 4.44432 5.50019C4.50273 5.50019 4.56027 5.48599 4.61197 5.45881C4.66368 5.43163 4.70801 5.3923 4.74113 5.34419L7.99091 0.650064C8.02852 0.595921 8.05058 0.532505 8.05469 0.466706C8.05879 0.400907 8.04479 0.335241 8.01419 0.276842C7.9836 0.218444 7.93758 0.169547 7.88115 0.135464C7.82472 0.101381 7.76002 0.0834156 7.69409 0.0835194H1.19454C1.12877 0.0837911 1.06431 0.101988 1.00811 0.136152C0.951901 0.170317 0.906072 0.219157 0.875548 0.27742C0.845024 0.335683 0.83096 0.401165 0.834868 0.466824C0.838776 0.532482 0.860509 0.595833 0.89773 0.650064L4.14751 5.34419Z" fill="white"/>
</svg>
