<svg width="31" height="31" viewBox="0 0 31 31" fill="none" xmlns="http://www.w3.org/2000/svg">
<path d="M17.3085 22.5007H14.0665C11.9481 22.5007 10.2302 20.7182 10.2302 18.5224C10.2302 17.9928 10.6694 17.5536 11.199 17.5536C11.7285 17.5536 12.1677 17.9928 12.1677 18.5224C12.1677 19.6461 13.0202 20.5632 14.0665 20.5632H17.3085C18.1481 20.5632 18.8456 19.814 18.8456 18.9099C18.8456 17.7861 18.4452 17.5665 17.7865 17.334L12.581 15.4999C11.5735 15.1511 10.2173 14.4019 10.2173 12.0899C10.2173 10.1007 11.7802 8.49902 13.6919 8.49902H16.934C19.0523 8.49902 20.7702 10.2815 20.7702 12.4774C20.7702 13.0069 20.331 13.4461 19.8015 13.4461C19.2719 13.4461 18.8327 13.0069 18.8327 12.4774C18.8327 11.3536 17.9802 10.4365 16.934 10.4365H13.6919C12.8523 10.4365 12.1548 11.1857 12.1548 12.0899C12.1548 13.2136 12.5552 13.4332 13.214 13.6657L18.4194 15.4999C19.4269 15.8486 20.7831 16.5978 20.7831 18.9099C20.7702 20.8861 19.2202 22.5007 17.3085 22.5007Z" fill="white"/>
<path d="M15.5 24.2188C14.9704 24.2188 14.5312 23.7796 14.5312 23.25V7.75C14.5312 7.22042 14.9704 6.78125 15.5 6.78125C16.0296 6.78125 16.4688 7.22042 16.4688 7.75V23.25C16.4688 23.7796 16.0296 24.2188 15.5 24.2188Z" fill="white"/>
<path d="M19.3752 29.3856H11.6252C4.61141 29.3856 1.61475 26.3889 1.61475 19.3752V11.6252C1.61475 4.61141 4.61141 1.61475 11.6252 1.61475H19.3752C26.3889 1.61475 29.3856 4.61141 29.3856 11.6252V19.3752C29.3856 26.3889 26.3889 29.3856 19.3752 29.3856ZM11.6252 3.55225C5.67058 3.55225 3.55225 5.67058 3.55225 11.6252V19.3752C3.55225 25.3297 5.67058 27.4481 11.6252 27.4481H19.3752C25.3297 27.4481 27.4481 25.3297 27.4481 19.3752V11.6252C27.4481 5.67058 25.3297 3.55225 19.3752 3.55225H11.6252Z" fill="white"/>
</svg>
