<svg width="18" height="18" viewBox="0 0 18 18" fill="none" xmlns="http://www.w3.org/2000/svg">
<path d="M10.0501 13.0648H8.16762C6.93762 13.0648 5.94012 12.0298 5.94012 10.7548C5.94012 10.4473 6.19512 10.1923 6.50262 10.1923C6.81012 10.1923 7.06512 10.4473 7.06512 10.7548C7.06512 11.4073 7.56012 11.9398 8.16762 11.9398H10.0501C10.5376 11.9398 10.9426 11.5048 10.9426 10.9798C10.9426 10.3273 10.7101 10.1998 10.3276 10.0648L7.30512 8.99979C6.72012 8.79729 5.93262 8.36229 5.93262 7.01979C5.93262 5.86479 6.84012 4.93479 7.95012 4.93479H9.83262C11.0626 4.93479 12.0601 5.96979 12.0601 7.24479C12.0601 7.55229 11.8051 7.80729 11.4976 7.80729C11.1901 7.80729 10.9351 7.55229 10.9351 7.24479C10.9351 6.59229 10.4401 6.05979 9.83262 6.05979H7.95012C7.46262 6.05979 7.05762 6.49479 7.05762 7.01979C7.05762 7.67229 7.29012 7.79979 7.67262 7.93479L10.6951 8.99979C11.2801 9.20229 12.0676 9.63729 12.0676 10.9798C12.0601 12.1273 11.1601 13.0648 10.0501 13.0648Z" fill="white"/>
<path d="M9.00012 14.0623C8.69262 14.0623 8.43762 13.8073 8.43762 13.4998V4.49979C8.43762 4.19229 8.69262 3.93729 9.00012 3.93729C9.30762 3.93729 9.56262 4.19229 9.56262 4.49979V13.4998C9.56262 13.8073 9.30762 14.0623 9.00012 14.0623Z" fill="white"/>
<path d="M11.2501 17.0623H6.75012C2.67762 17.0623 0.937622 15.3223 0.937622 11.2498V6.74979C0.937622 2.67729 2.67762 0.937286 6.75012 0.937286H11.2501C15.3226 0.937286 17.0626 2.67729 17.0626 6.74979V11.2498C17.0626 15.3223 15.3226 17.0623 11.2501 17.0623ZM6.75012 2.06229C3.29262 2.06229 2.06262 3.29229 2.06262 6.74979V11.2498C2.06262 14.7073 3.29262 15.9373 6.75012 15.9373H11.2501C14.7076 15.9373 15.9376 14.7073 15.9376 11.2498V6.74979C15.9376 3.29229 14.7076 2.06229 11.2501 2.06229H6.75012Z" fill="white"/>
</svg>
