<svg width="31" height="31" viewBox="0 0 31 31" fill="none" xmlns="http://www.w3.org/2000/svg">
<path d="M15.5127 21.9584C14.4148 21.9584 13.3039 21.6742 12.4385 21.1188L4.66267 16.0426C3.216 15.0997 2.35059 13.5109 2.35059 11.7801C2.35059 10.0492 3.216 8.46049 4.66267 7.51757L12.4514 2.45424C14.1823 1.33049 16.8818 1.33049 18.5998 2.46716L26.3368 7.54341C27.7706 8.48632 28.636 10.0751 28.636 11.793C28.636 13.5109 27.7706 15.0997 26.3368 16.0426L18.5998 21.1188C17.7343 21.6872 16.6235 21.9584 15.5127 21.9584ZM15.5127 3.55216C14.7764 3.55216 14.0402 3.72007 13.5106 4.08174L5.73475 9.14507C4.83059 9.73924 4.301 10.6951 4.301 11.7801C4.301 12.8651 4.81767 13.8209 5.73475 14.4151L13.5106 19.4913C14.5827 20.1888 16.4685 20.1888 17.5406 19.4913L25.2777 14.4151C26.1818 13.8209 26.6985 12.8651 26.6985 11.7801C26.6985 10.6951 26.1818 9.73924 25.2777 9.14507L17.5406 4.06882C16.9981 3.73299 16.2618 3.55216 15.5127 3.55216Z" fill="#282689"/>
<path d="M15.4997 29.3854C14.9314 29.3854 14.3501 29.3079 13.8851 29.1529L9.7647 27.7838C7.81429 27.1379 6.2772 25.0067 6.29012 22.9529L6.30304 16.895C6.30304 16.3654 6.7422 15.9263 7.27179 15.9263C7.80137 15.9263 8.24054 16.3654 8.24054 16.895L8.22762 22.9529C8.22762 24.1671 9.23512 25.5621 10.3847 25.9496L14.5051 27.3188C15.0218 27.4867 15.9776 27.4867 16.4943 27.3188L20.6147 25.9496C21.7643 25.5621 22.7718 24.1671 22.7718 22.9659V16.9725C22.7718 16.4429 23.211 16.0038 23.7405 16.0038C24.2701 16.0038 24.7093 16.4429 24.7093 16.9725V22.9659C24.7093 25.0196 23.1851 27.1379 21.2347 27.7967L17.1143 29.1659C16.6493 29.3079 16.068 29.3854 15.4997 29.3854Z" fill="#282689"/>
<path d="M27.6416 20.3438C27.112 20.3438 26.6729 19.9046 26.6729 19.375V11.625C26.6729 11.0954 27.112 10.6562 27.6416 10.6562C28.1712 10.6562 28.6104 11.0954 28.6104 11.625V19.375C28.6104 19.9046 28.1712 20.3438 27.6416 20.3438Z" fill="#282689"/>
</svg>
