<svg width="24" height="24" viewBox="0 0 24 24" fill="none" xmlns="http://www.w3.org/2000/svg">
<mask id="mask0_47_495" style="mask-type:alpha" maskUnits="userSpaceOnUse" x="0" y="0" width="24" height="24">
<rect width="24" height="24" fill="#D9D9D9"/>
</mask>
<g mask="url(#mask0_47_495)">
</g>
<path d="M3.71289 18V16.2375C3.71289 15.8 3.82539 15.4031 4.05039 15.0469C4.27539 14.6906 4.58789 14.425 4.98789 14.25C5.90039 13.85 6.72227 13.5625 7.45352 13.3875C8.18477 13.2125 8.93789 13.125 9.71289 13.125C10.4879 13.125 11.2379 13.2125 11.9629 13.3875C12.6879 13.5625 13.5066 13.85 14.4191 14.25C14.8191 14.425 15.1348 14.6906 15.366 15.0469C15.5973 15.4031 15.7129 15.8 15.7129 16.2375V18H3.71289ZM16.8379 18V16.2375C16.8379 15.45 16.6379 14.8031 16.2379 14.2969C15.8379 13.7906 15.3129 13.3813 14.6629 13.0688C15.5254 13.1688 16.3379 13.3156 17.1004 13.5094C17.8629 13.7031 18.4816 13.925 18.9566 14.175C19.3691 14.4125 19.6941 14.7063 19.9316 15.0563C20.1691 15.4063 20.2879 15.8 20.2879 16.2375V18H16.8379ZM9.71289 11.9813C8.88789 11.9813 8.21289 11.7188 7.68789 11.1938C7.16289 10.6688 6.90039 9.99376 6.90039 9.16876C6.90039 8.34376 7.16289 7.66876 7.68789 7.14376C8.21289 6.61876 8.88789 6.35626 9.71289 6.35626C10.5379 6.35626 11.2129 6.61876 11.7379 7.14376C12.2629 7.66876 12.5254 8.34376 12.5254 9.16876C12.5254 9.99376 12.2629 10.6688 11.7379 11.1938C11.2129 11.7188 10.5379 11.9813 9.71289 11.9813V11.9813ZM13.6504 11.9813C13.5129 11.9813 13.3598 11.9719 13.191 11.9531C13.0223 11.9344 12.8691 11.9 12.7316 11.85C13.0316 11.5375 13.2598 11.1531 13.416 10.6969C13.5723 10.2406 13.6504 9.73126 13.6504 9.16876C13.6504 8.60626 13.5723 8.10939 13.416 7.67814C13.2598 7.24689 13.0316 6.85001 12.7316 6.48751C12.8691 6.45001 13.0223 6.41876 13.191 6.39376C13.3598 6.36876 13.5129 6.35626 13.6504 6.35626C14.4754 6.35626 15.1504 6.61876 15.6754 7.14376C16.2004 7.66876 16.4629 8.34376 16.4629 9.16876C16.4629 9.99376 16.2004 10.6688 15.6754 11.1938C15.1504 11.7188 14.4754 11.9813 13.6504 11.9813V11.9813ZM4.83789 16.875H14.5879V16.2375C14.5879 16.0375 14.5285 15.8438 14.4098 15.6563C14.291 15.4688 14.1441 15.3375 13.9691 15.2625C13.0691 14.8625 12.3129 14.5938 11.7004 14.4563C11.0879 14.3188 10.4254 14.25 9.71289 14.25C9.00039 14.25 8.33477 14.3188 7.71602 14.4563C7.09727 14.5938 6.33789 14.8625 5.43789 15.2625C5.26289 15.3375 5.11914 15.4688 5.00664 15.6563C4.89414 15.8438 4.83789 16.0375 4.83789 16.2375V16.875ZM9.71289 10.8563C10.2004 10.8563 10.6035 10.6969 10.9223 10.3781C11.241 10.0594 11.4004 9.65626 11.4004 9.16876C11.4004 8.68126 11.241 8.27814 10.9223 7.95939C10.6035 7.64064 10.2004 7.48126 9.71289 7.48126C9.22539 7.48126 8.82227 7.64064 8.50352 7.95939C8.18477 8.27814 8.02539 8.68126 8.02539 9.16876C8.02539 9.65626 8.18477 10.0594 8.50352 10.3781C8.82227 10.6969 9.22539 10.8563 9.71289 10.8563Z" fill="white"/>
</svg>
