<svg width="16" height="16" viewBox="0 0 16 16" fill="none" xmlns="http://www.w3.org/2000/svg">
<path d="M11.9999 5.27335C11.9799 5.27335 11.9666 5.27335 11.9466 5.27335H11.9133C10.6533 5.23335 9.71326 4.26001 9.71326 3.06001C9.71326 1.83334 10.7133 0.840006 11.9333 0.840006C13.1533 0.840006 14.1533 1.84001 14.1533 3.06001C14.1466 4.26667 13.2066 5.24001 12.0066 5.28001C12.0066 5.27334 12.0066 5.27335 11.9999 5.27335ZM11.9333 1.83334C11.2599 1.83334 10.7133 2.38001 10.7133 3.05334C10.7133 3.71334 11.2266 4.24668 11.8866 4.27335C11.8933 4.26668 11.9466 4.26668 12.0066 4.27335C12.6533 4.24001 13.1533 3.70668 13.1599 3.05334C13.1599 2.38001 12.6133 1.83334 11.9333 1.83334Z" fill="white"/>
<path d="M12.0066 10.1867C11.7466 10.1867 11.4866 10.1667 11.2266 10.12C10.9533 10.0733 10.7733 9.81335 10.82 9.54002C10.8666 9.26668 11.1266 9.08668 11.4 9.13335C12.22 9.27335 13.0866 9.12002 13.6666 8.73335C13.98 8.52669 14.1466 8.26668 14.1466 8.00668C14.1466 7.74668 13.9733 7.49335 13.6666 7.28668C13.0866 6.90001 12.2066 6.74668 11.38 6.89335C11.1066 6.94668 10.8466 6.76001 10.8 6.48668C10.7533 6.21335 10.9333 5.95335 11.2066 5.90668C12.2933 5.71335 13.42 5.92001 14.22 6.45335C14.8066 6.84668 15.1466 7.40668 15.1466 8.00668C15.1466 8.60001 14.8133 9.16669 14.22 9.56669C13.6133 9.96669 12.8266 10.1867 12.0066 10.1867Z" fill="white"/>
<path d="M3.97995 5.27334C3.97328 5.27334 3.96661 5.27334 3.96661 5.27334C2.76661 5.23334 1.82661 4.26 1.81995 3.06C1.81995 1.83333 2.81995 0.833334 4.03995 0.833334C5.25995 0.833334 6.25995 1.83334 6.25995 3.05334C6.25995 4.26 5.31995 5.23334 4.11995 5.27334L3.97995 4.77334L4.02661 5.27334C4.01328 5.27334 3.99328 5.27334 3.97995 5.27334ZM4.04661 4.27334C4.08661 4.27334 4.11995 4.27333 4.15995 4.28C4.75328 4.25333 5.27328 3.72 5.27328 3.06C5.27328 2.38666 4.72661 1.84 4.05328 1.84C3.37995 1.84 2.83328 2.38666 2.83328 3.06C2.83328 3.71333 3.33995 4.24 3.98661 4.28C3.99328 4.27333 4.01995 4.27334 4.04661 4.27334Z" fill="white"/>
<path d="M3.97337 10.1867C3.15337 10.1867 2.36671 9.96669 1.76004 9.56669C1.17337 9.17335 0.833374 8.60668 0.833374 8.00668C0.833374 7.41335 1.17337 6.84668 1.76004 6.45335C2.56004 5.92001 3.68671 5.71335 4.77337 5.90668C5.04671 5.95335 5.22671 6.21335 5.18004 6.48668C5.13337 6.76001 4.87337 6.94668 4.60004 6.89335C3.77338 6.74668 2.90004 6.90001 2.31337 7.28668C2.00004 7.49335 1.83337 7.74668 1.83337 8.00668C1.83337 8.26668 2.00671 8.52669 2.31337 8.73335C2.89337 9.12002 3.76004 9.27335 4.58004 9.13335C4.85337 9.08668 5.11338 9.27335 5.16004 9.54002C5.20671 9.81335 5.02671 10.0733 4.75337 10.12C4.49337 10.1667 4.23337 10.1867 3.97337 10.1867Z" fill="white"/>
<path d="M7.99992 10.2533C7.97992 10.2533 7.96659 10.2533 7.94659 10.2533H7.91326C6.65326 10.2133 5.71326 9.23999 5.71326 8.03999C5.71326 6.81332 6.71326 5.81999 7.93326 5.81999C9.15326 5.81999 10.1533 6.81999 10.1533 8.03999C10.1466 9.24666 9.20659 10.22 8.00659 10.26C8.00659 10.2533 8.00659 10.2533 7.99992 10.2533ZM7.93326 6.81333C7.25992 6.81333 6.71326 7.35999 6.71326 8.03333C6.71326 8.69333 7.22659 9.22666 7.88659 9.25333C7.89326 9.24666 7.94659 9.24666 8.00659 9.25333C8.65326 9.21999 9.15326 8.68666 9.15992 8.03333C9.15992 7.36666 8.61326 6.81333 7.93326 6.81333Z" fill="white"/>
<path d="M7.99982 15.1733C7.19982 15.1733 6.39982 14.9667 5.77982 14.5467C5.19315 14.1533 4.85315 13.5933 4.85315 12.9933C4.85315 12.4 5.18648 11.8266 5.77982 11.4333C7.02648 10.6066 8.97982 10.6066 10.2198 11.4333C10.8065 11.8266 11.1465 12.3866 11.1465 12.9866C11.1465 13.58 10.8132 14.1533 10.2198 14.5467C9.59982 14.96 8.79982 15.1733 7.99982 15.1733ZM6.33315 12.2733C6.01982 12.48 5.85315 12.74 5.85315 13C5.85315 13.26 6.02648 13.5133 6.33315 13.72C7.23315 14.3267 8.75982 14.3267 9.65982 13.72C9.97315 13.5133 10.1398 13.2533 10.1398 12.9933C10.1398 12.7333 9.96649 12.48 9.65982 12.2733C8.76648 11.6667 7.23982 11.6733 6.33315 12.2733Z" fill="white"/>
</svg>
