<svg width="82" height="98" viewBox="0 0 82 98" fill="none" xmlns="http://www.w3.org/2000/svg">
<mask id="mask0_2392_9658" style="mask-type:alpha" maskUnits="userSpaceOnUse" x="0" y="0" width="82" height="98">
<rect width="82" height="98" fill="#D9D9D9"/>
</mask>
<g mask="url(#mask0_2392_9658)">
<path d="M223.819 12.4173C197.386 0.0280421 167.874 -2.08236 139.224 -3.6986C111.645 -3.78846 83.3318 -3.50997 57.0387 6.10716C39.4003 12.2811 23.2098 24.2192 14.1637 41.0995C8.97154 49.9434 6.51316 60.0066 4.04914 69.8913C0.436338 85.5961 0.181319 101.792 -1.27144 117.762L-2.03747 143.343C-1.60932 159.76 -2.30234 176.322 0.374799 192.594C2.23299 202.575 4.06361 212.744 8.69604 221.86C16.7135 239.329 32.1922 252.26 49.4949 259.492C75.1558 270.62 103.378 272.625 130.903 274.174C157.333 274.241 184.341 274.023 209.713 265.55C224.639 260.733 238.859 252.427 248.868 239.958C256.462 230.617 261.541 219.361 264.29 207.612C269.541 189.86 269.783 171.188 271.415 152.881L272.166 127.801C271.917 102.468 272.606 76.1824 263.106 52.2787C255.926 34.2657 241.081 20.2608 223.819 12.4173Z" fill="#282689"/>
<circle cx="49.9679" cy="62.9318" r="10.5436" fill="#5CEAE1"/>
</g>
</svg>
