<svg width="40" height="58" viewBox="0 0 40 58" fill="none" xmlns="http://www.w3.org/2000/svg">
<path d="M-3.38292 -83.485C-17.6108 -86.2389 -32.0723 -83.6714 -46.0592 -80.9706C-59.3452 -77.6652 -72.9397 -74.0934 -84.428 -66.2717C-92.1685 -61.1582 -98.5122 -53.4459 -100.817 -44.2223C-102.242 -39.3349 -102.204 -34.1925 -102.189 -29.1354C-102.022 -21.1373 -100.178 -13.3106 -98.938 -5.44704L-96.2006 6.95936C-94.0011 14.8096 -92.3238 22.8656 -89.0593 30.3732C-86.953 34.9516 -84.8371 39.6243 -81.5004 43.4497C-75.5201 50.885 -66.4994 55.2298 -57.2928 56.6097C-43.5898 58.8505 -29.7616 56.3887 -16.3247 53.7923C-3.59462 50.6151 9.37919 47.2312 20.563 40.0717C27.1627 35.9409 32.9991 30.2163 36.3028 22.9991C38.824 17.5809 39.9017 11.5463 39.7986 5.55681C40.1706 -3.62573 38.0197 -12.6426 36.5825 -21.6526L33.8988 -33.8159C30.7031 -45.9795 27.8428 -58.7158 20.3676 -69.0682C14.7244 -76.8668 5.87865 -81.8056 -3.38292 -83.485Z" fill="#5CEAE1"/>
</svg>
