<svg width="24" height="25" viewBox="0 0 24 25" fill="none" xmlns="http://www.w3.org/2000/svg">
<path d="M11.9999 17.0623C9.60992 17.0623 7.66992 15.1223 7.66992 12.7323C7.66992 10.3423 9.60992 8.40234 11.9999 8.40234C14.3899 8.40234 16.3299 10.3423 16.3299 12.7323C16.3299 15.1223 14.3899 17.0623 11.9999 17.0623ZM11.9999 9.90234C10.4399 9.90234 9.16992 11.1723 9.16992 12.7323C9.16992 14.2923 10.4399 15.5623 11.9999 15.5623C13.5599 15.5623 14.8299 14.2923 14.8299 12.7323C14.8299 11.1723 13.5599 9.90234 11.9999 9.90234Z" fill="#282689"/>
<path d="M12.0001 21.7524C8.24008 21.7524 4.69008 19.5524 2.25008 15.7324C1.19008 14.0824 1.19008 11.3924 2.25008 9.7324C4.70008 5.9124 8.25008 3.7124 12.0001 3.7124C15.7501 3.7124 19.3001 5.9124 21.7401 9.7324C22.8001 11.3824 22.8001 14.0724 21.7401 15.7324C19.3001 19.5524 15.7501 21.7524 12.0001 21.7524ZM12.0001 5.2124C8.77008 5.2124 5.68008 7.1524 3.52008 10.5424C2.77008 11.7124 2.77008 13.7524 3.52008 14.9224C5.68008 18.3124 8.77008 20.2524 12.0001 20.2524C15.2301 20.2524 18.3201 18.3124 20.4801 14.9224C21.2301 13.7524 21.2301 11.7124 20.4801 10.5424C18.3201 7.1524 15.2301 5.2124 12.0001 5.2124Z" fill="#282689"/>
</svg>
