<svg width="31" height="31" viewBox="0 0 31 31" fill="none" xmlns="http://www.w3.org/2000/svg">
<path d="M9.26083 29.3855C6.18666 29.3855 3.66797 27.1509 3.66797 24.3997V21.7646C3.66797 21.2351 4.10714 20.7959 4.63672 20.7959C5.1663 20.7959 5.60547 21.2351 5.60547 21.7646C5.60547 23.3792 7.16833 24.5934 9.26083 24.5934C11.3533 24.5934 12.9163 23.3792 12.9163 21.7646C12.9163 21.2351 13.3554 20.7959 13.885 20.7959C14.4146 20.7959 14.8538 21.2351 14.8538 21.7646V24.3997C14.8538 27.1509 12.3479 29.3855 9.26083 29.3855ZM5.94124 25.6655C6.50957 26.7247 7.78833 27.448 9.26083 27.448C10.7333 27.448 12.0121 26.7118 12.5804 25.6655C11.6633 26.2209 10.5267 26.5438 9.26083 26.5438C7.995 26.5438 6.85832 26.2209 5.94124 25.6655Z" fill="#282689"/>
<path d="M9.26083 22.9917C7.1425 22.9917 5.24379 22.0229 4.30087 20.4858C3.88754 19.8142 3.66797 19.0263 3.66797 18.2254C3.66797 16.8692 4.26212 15.6033 5.34712 14.6604C7.43962 12.8262 11.0433 12.8263 13.1488 14.6476C14.2338 15.6034 14.8408 16.8692 14.8408 18.2254C14.8408 19.0263 14.6213 19.8142 14.2079 20.4858C13.2779 22.0229 11.3792 22.9917 9.26083 22.9917ZM9.26083 15.1771C8.25333 15.1771 7.32336 15.5129 6.62586 16.12C5.96711 16.6883 5.60547 17.4375 5.60547 18.2254C5.60547 18.6775 5.72167 19.0909 5.95416 19.4784C6.54833 20.4601 7.81416 21.0671 9.26083 21.0671C10.7075 21.0671 11.9733 20.4601 12.5546 19.4913C12.7871 19.1167 12.9033 18.6904 12.9033 18.2384C12.9033 17.4504 12.5417 16.7013 11.8829 16.12C11.1984 15.5129 10.2683 15.1771 9.26083 15.1771Z" fill="#282689"/>
<path d="M9.26083 26.5437C6.07041 26.5437 3.66797 24.4899 3.66797 21.7774V18.2253C3.66797 15.4741 6.17375 13.2395 9.26083 13.2395C10.7204 13.2395 12.1154 13.7433 13.1617 14.6475C14.2467 15.6033 14.8538 16.8691 14.8538 18.2253V21.7774C14.8538 24.4899 12.4512 26.5437 9.26083 26.5437ZM9.26083 15.177C7.24583 15.177 5.60547 16.5461 5.60547 18.2253V21.7774C5.60547 23.392 7.16833 24.6062 9.26083 24.6062C11.3533 24.6062 12.9163 23.392 12.9163 21.7774V18.2253C12.9163 17.4374 12.5546 16.6882 11.8959 16.107C11.1984 15.5128 10.2683 15.177 9.26083 15.177Z" fill="#282689"/>
<path d="M24.5935 19.1166C22.6431 19.1166 20.9898 17.6699 20.8348 15.8099C20.7315 14.7379 21.119 13.6916 21.894 12.9295C22.5398 12.2579 23.4568 11.8833 24.4256 11.8833H27.1252C28.404 11.9221 29.3856 12.9295 29.3856 14.1695V16.8304C29.3856 18.0704 28.404 19.0779 27.164 19.1166H24.5935ZM27.0864 13.8208H24.4385C23.9864 13.8208 23.5731 13.9887 23.2761 14.2987C22.9015 14.6604 22.7206 15.1512 22.7723 15.642C22.8369 16.4945 23.6635 17.1791 24.5935 17.1791H27.1252C27.2931 17.1791 27.4481 17.0242 27.4481 16.8304V14.1695C27.4481 13.9757 27.2931 13.8337 27.0864 13.8208Z" fill="#282689"/>
<path d="M20.6666 27.4478H17.4374C16.9078 27.4478 16.4687 27.0087 16.4687 26.4791C16.4687 25.9495 16.9078 25.5103 17.4374 25.5103H20.6666C23.9991 25.5103 26.1562 23.3533 26.1562 20.0208V19.1166H24.5932C22.6428 19.1166 20.9895 17.6699 20.8345 15.8099C20.7312 14.7378 21.1187 13.6916 21.8937 12.9295C22.5395 12.2578 23.4565 11.8833 24.4253 11.8833H26.1432V10.9791C26.1432 7.95659 24.3737 5.87697 21.5062 5.54114C21.1962 5.48947 20.9249 5.4895 20.6536 5.4895H9.02865C8.71865 5.4895 8.42155 5.51532 8.12446 5.55407C5.2828 5.91574 3.53906 7.98242 3.53906 10.9791V13.5624C3.53906 14.092 3.0999 14.5312 2.57031 14.5312C2.04073 14.5312 1.60156 14.092 1.60156 13.5624V10.9791C1.60156 7.00075 4.05578 4.12034 7.86619 3.64243C8.21494 3.59076 8.61531 3.552 9.02865 3.552H20.6536C20.9636 3.552 21.3641 3.56492 21.7774 3.6295C25.5878 4.06867 28.0807 6.962 28.0807 10.9791V12.852C28.0807 13.3816 27.6416 13.8208 27.112 13.8208H24.4253C23.9732 13.8208 23.5599 13.9887 23.2628 14.2987C22.8883 14.6603 22.7074 15.1511 22.7591 15.642C22.8237 16.4945 23.6504 17.1791 24.5804 17.1791H27.1249C27.6545 17.1791 28.0937 17.6182 28.0937 18.1478V20.0208C28.0937 24.4641 25.1099 27.4478 20.6666 27.4478Z" fill="#282689"/>
</svg>
